<svg version="1.1" id="Layer_1" xmlns="http://www.w3.org/2000/svg" xmlns:xlink="http://www.w3.org/1999/xlink" x="0px" y="0px"
	 width="100%" viewBox="0 0 709 532" enable-background="new 0 0 709 532" xml:space="preserve">
<path fill="#000000" opacity="1.000000" stroke="none" 
	d="
M158.000000,533.000000 
	C105.678818,533.000000 53.357632,533.000000 1.018225,533.000000 
	C1.018225,355.720001 1.018225,178.439972 1.018225,1.079979 
	C237.225113,1.079979 473.450256,1.079979 710.000000,1.079979 
	C710.000000,148.690582 710.000000,296.381409 709.677429,444.830933 
	C708.906555,444.955353 708.276245,444.382904 708.036621,443.677765 
	C702.423584,427.154846 694.544006,411.757172 684.786865,397.332794 
	C676.066162,384.440582 665.640015,373.012787 654.264465,362.366150 
	C657.338928,358.685547 660.223633,355.253296 663.462830,351.889038 
	C669.141479,354.015320 672.022766,358.533081 674.988892,362.989044 
	C676.524719,365.296234 678.007996,367.839325 681.616150,366.693542 
	C681.955322,364.951782 682.285583,363.256195 682.671143,361.276520 
	C685.243958,361.846100 687.412781,362.681519 689.586670,362.695099 
	C691.328796,362.706024 693.077087,361.719269 694.822693,361.175293 
	C693.853088,359.799622 693.156494,358.049164 691.868347,357.110870 
	C685.036560,352.134796 676.555298,349.552399 671.172363,342.444153 
	C670.942078,341.148987 670.815491,339.813782 670.081604,339.144562 
	C666.906433,336.249329 663.408508,333.702271 660.289307,330.752289 
	C641.526245,313.007233 625.632812,293.058777 613.964600,269.449219 
	C613.954651,266.102448 613.954651,263.203613 613.954651,260.218201 
	C612.476685,260.049988 611.230286,259.908112 609.994141,259.416931 
	C609.661011,257.926727 609.317505,256.785828 608.822388,255.141113 
	C610.822205,255.911026 612.114868,256.595337 613.492004,256.908630 
	C622.496460,258.957062 624.798584,257.090759 624.985352,247.603851 
	C625.080505,242.768890 625.062866,237.931717 625.429077,232.929199 
	C632.256775,223.515610 626.932678,212.648438 619.518860,207.728073 
	C612.879517,203.321732 605.773071,203.901855 598.606873,204.069824 
	C595.412415,204.144699 592.058228,204.488846 589.087036,205.566788 
	C582.386658,207.997757 577.459595,212.720062 574.414856,219.175613 
	C571.046936,226.316071 570.887451,233.943863 573.801636,241.004654 
	C577.563782,250.120026 585.531982,254.396118 594.984741,256.396210 
	C594.999084,257.097382 595.001465,257.497742 594.635254,257.937622 
	C593.628174,258.113403 592.703491,258.025024 592.394043,258.419342 
	C587.142639,265.111176 581.526672,271.575409 576.894592,278.678955 
	C571.827332,286.449951 567.684998,294.824036 563.075256,302.482666 
	C562.673889,297.776642 562.531494,293.497009 561.962769,289.274841 
	C560.361511,277.388367 559.403137,265.336090 556.707764,253.692657 
	C551.038452,229.202805 543.702454,205.203598 531.045349,183.190811 
	C526.269287,174.884399 522.293457,166.052490 516.899414,158.182037 
	C508.665741,146.168152 499.987549,134.383957 490.594971,123.265144 
	C484.142883,115.627235 476.392426,109.014130 468.797699,102.432976 
	C460.585724,95.316956 452.114075,88.446114 443.304443,82.094177 
	C437.777863,78.109390 431.459564,75.204170 425.423676,71.949631 
	C419.711060,68.869392 414.090637,65.498146 408.093170,63.094452 
	C399.304718,59.572166 390.019104,57.266544 381.302002,53.595551 
	C368.203522,48.079460 354.383820,46.082115 340.531769,45.213871 
	C325.424744,44.266968 310.196442,44.580025 295.052704,45.165138 
	C286.851776,45.482006 278.594208,46.995430 270.584991,48.903912 
	C261.643860,51.034447 252.875153,53.994282 244.179352,57.018616 
	C235.470444,60.047512 226.571777,62.883842 218.432327,67.107430 
	C208.320633,72.354431 198.617859,78.530220 189.262726,85.056366 
	C179.165298,92.100349 169.142059,99.429901 160.066940,107.709557 
	C151.015366,115.967735 142.669525,125.146072 134.960251,134.685486 
	C127.976028,143.327728 121.920265,152.787735 116.096016,162.280411 
	C110.629623,171.189789 106.002274,180.613983 100.606339,189.893585 
	C98.958199,190.280121 97.642403,190.424408 96.471184,190.914322 
	C85.875931,195.346329 75.702538,195.497940 65.975174,188.484695 
	C54.832520,180.451065 34.481060,185.441010 29.502537,199.939484 
	C27.757452,205.021500 29.431810,212.427444 33.272308,215.032852 
	C42.220516,221.103363 51.780006,221.769699 61.584320,217.679031 
	C66.756706,215.520920 71.685585,212.752182 76.633568,210.090302 
	C82.304672,207.039368 86.981430,207.518112 90.958130,212.206436 
	C90.521126,213.810501 90.262810,215.046982 89.935410,216.264908 
	C84.969833,234.736816 78.897926,253.000137 75.376099,271.742767 
	C72.646790,286.267761 73.102692,301.391266 71.938751,316.545197 
	C68.628311,325.276154 65.091476,333.582977 62.540733,342.182312 
	C60.160923,350.205353 58.829041,358.539215 56.672775,366.849335 
	C51.125187,369.856110 45.867779,372.630676 40.807583,375.727509 
	C39.545906,376.499634 38.056648,378.427673 38.216694,379.616516 
	C38.426517,381.175171 39.869377,383.047485 41.305904,383.873199 
	C45.972950,386.555786 50.594105,384.348328 54.772102,382.479156 
	C58.463005,380.827911 60.618523,381.651825 63.059723,384.431396 
	C64.333199,385.881409 66.455894,386.585571 68.195015,387.626617 
	C68.089699,380.910767 64.802902,375.432770 69.462540,370.030396 
	C71.503716,368.676422 73.185814,367.346405 74.922195,366.447449 
	C75.640450,369.034119 76.521065,371.149536 76.929733,373.352539 
	C78.444832,381.519958 79.804390,389.716248 81.123688,398.279205 
	C77.395653,408.960480 73.708946,419.244507 70.151535,429.573029 
	C65.741814,442.376007 61.699490,455.312103 57.007530,468.009247 
	C53.292423,478.062927 49.059956,487.945343 44.589546,497.689209 
	C43.025311,501.098724 43.530479,502.078735 46.982338,502.519867 
	C45.583714,505.935516 44.191296,508.985901 42.409733,512.025024 
	C38.433514,513.549683 36.097946,522.981934 38.794437,525.299377 
	C39.331364,525.760803 40.297077,525.888794 41.065716,525.890564 
	C55.632362,525.923889 70.199104,525.915161 84.742867,525.915161 
	C85.222946,518.692139 85.223015,518.691406 78.213104,517.994629 
	C77.720406,517.945679 77.164146,518.053650 76.740837,517.861206 
	C70.138557,514.859192 63.553341,511.819641 57.127026,508.492920 
	C57.863892,507.074585 58.437912,505.952179 59.444229,504.893127 
	C67.344803,507.228821 69.661812,500.772949 72.488693,496.658142 
	C82.351875,482.301147 91.599823,467.521515 101.421173,453.070374 
	C102.162224,454.604828 102.288628,456.140198 103.007713,457.311798 
	C110.121048,468.901215 117.209892,480.509064 124.548363,491.956085 
	C133.106873,505.306213 143.413391,517.245544 154.694244,528.370300 
	C156.024384,529.682129 156.908890,531.445801 158.000000,533.000000 
M91.064987,130.472870 
	C87.265022,124.655556 79.987404,121.728699 73.910309,123.547394 
	C62.953644,126.826401 57.112030,137.407593 62.062805,149.274139 
	C64.686386,155.562592 78.183517,160.775116 83.861038,157.637375 
	C93.896851,152.090958 98.248825,141.480988 91.064987,130.472870 
M14.077658,268.615234 
	C17.646925,271.746948 21.325134,271.400940 25.098047,268.998199 
	C28.696520,266.706512 30.816696,260.073029 28.891293,255.199951 
	C27.343393,251.282288 24.521090,248.734772 19.681168,248.913239 
	C15.610268,249.063324 12.519544,250.572739 11.104288,254.216766 
	C9.190642,259.144043 8.805346,264.128174 14.077658,268.615234 
z"/>
<path fill="#C5CDD5" opacity="1.000000" stroke="none" 
	d="
M158.468658,533.000000 
	C156.908890,531.445801 156.024384,529.682129 154.694244,528.370300 
	C143.413391,517.245544 133.106873,505.306213 124.548363,491.956085 
	C117.209892,480.509064 110.121048,468.901215 103.007713,457.311798 
	C102.288628,456.140198 102.162224,454.604828 101.485435,452.727478 
	C101.981461,450.566071 102.634781,448.847351 103.542068,447.275146 
	C115.016602,427.391754 126.511238,407.519867 138.070938,387.685974 
	C138.755783,386.510956 140.038513,385.684387 141.313263,384.916718 
	C145.901260,388.191284 150.017029,391.593933 154.575317,394.231842 
	C167.432846,401.672577 180.472107,408.799255 193.200531,416.330536 
	C190.773590,417.779785 188.677078,419.181702 186.383041,420.078064 
	C173.086563,425.273376 159.725311,430.303253 146.442444,435.532532 
	C144.995605,436.102142 143.910217,437.589874 142.306396,438.753571 
	C137.688416,440.308655 133.421204,441.761932 129.075439,442.819397 
	C126.375404,437.878876 122.463631,439.866302 119.493301,441.289276 
	C118.047562,441.981903 117.180435,445.270935 117.223091,447.360687 
	C117.289322,450.605560 118.421776,453.818604 118.986580,457.065247 
	C120.454460,465.503143 121.719742,473.980438 123.427902,482.368256 
	C123.710083,483.753845 125.821251,484.766998 127.087173,485.952301 
	C128.054764,484.844543 129.622147,483.865417 129.891830,482.607971 
	C131.546127,474.894318 132.632935,467.051666 134.480850,459.389923 
	C135.403076,455.566254 134.821854,453.336334 131.411469,452.229797 
	C136.500320,451.509735 141.149353,450.836884 146.108978,450.433044 
	C158.881714,451.245941 171.343872,451.789856 183.753311,452.681641 
	C182.023819,458.495605 180.233353,463.931244 178.753311,469.450104 
	C178.400101,470.767151 179.082809,472.362000 179.174652,474.182617 
	C178.038040,476.695740 177.015869,478.855286 175.688324,480.886505 
	C173.953873,481.443909 171.924911,481.756653 171.219070,482.892029 
	C169.693161,485.346405 168.845566,488.222534 167.424545,491.637360 
	C181.500290,496.796326 194.941437,501.766174 208.447327,506.553284 
	C209.176376,506.811707 211.263763,505.594208 211.307068,504.966431 
	C211.414566,503.406647 211.237503,501.208038 210.236160,500.292786 
	C204.284851,494.852875 198.120987,489.639069 191.897797,484.507904 
	C190.467453,483.328522 188.525497,482.769653 186.934906,481.612000 
	C187.787445,479.938507 188.524078,478.578156 189.623138,477.236145 
	C191.719437,475.831207 193.731461,474.638519 195.137085,472.943115 
	C200.124283,466.927856 204.904495,460.740997 209.843781,455.049866 
	C211.795746,465.359894 213.584396,475.256409 215.631912,485.099091 
	C215.922852,486.497559 217.471405,487.634369 218.437897,488.892303 
	C219.625900,487.339752 221.393448,485.948822 221.880920,484.200928 
	C222.887894,480.590271 223.165451,476.780884 223.829315,473.068726 
	C224.843964,467.394928 225.931610,461.734222 227.406342,456.025513 
	C234.853989,454.929352 241.894974,453.945526 248.909592,452.800110 
	C254.744781,451.847321 260.548981,450.704620 266.605255,449.886597 
	C279.239319,467.451508 291.636017,484.775055 304.029846,502.100708 
	C306.447235,505.480042 308.815338,508.943237 313.916321,507.407471 
	C315.286224,510.512543 316.618744,513.257812 317.561035,516.014893 
	C311.830566,518.181152 314.308929,522.817627 314.382874,526.352234 
	C314.402100,527.270081 318.140106,528.825317 320.194977,528.867249 
	C332.018280,529.108948 343.850403,529.067261 355.675476,528.873291 
	C357.096100,528.850037 358.492096,527.325806 359.899536,526.497314 
	C358.819763,525.029358 358.051056,522.825378 356.608521,522.215637 
	C348.705200,518.875305 340.665405,515.846436 332.596527,512.920105 
	C331.242584,512.429016 329.516663,512.963562 327.705170,512.786682 
	C326.348145,509.439392 325.248566,506.329620 324.513733,503.131439 
	C328.742035,502.111542 326.548370,499.700439 325.930389,497.993011 
	C319.550659,480.367462 313.069702,462.778564 306.839355,444.848877 
	C307.742279,444.062775 308.427887,443.204010 309.102570,443.212494 
	C318.554169,443.331390 321.352539,437.043427 322.705719,429.297729 
	C322.934570,427.987671 323.217773,426.687134 323.896759,425.483185 
	C331.260559,425.350983 338.203491,425.117798 345.402130,425.115112 
	C351.757507,434.252808 352.345825,444.914642 354.780945,455.089111 
	C348.894836,460.057068 343.294189,464.833527 337.334076,469.608063 
	C332.335266,472.925568 327.695953,476.244995 323.202545,479.460022 
	C333.803009,492.347748 343.874146,504.591980 353.945312,516.836182 
	C354.593903,516.617493 355.242493,516.398804 355.891083,516.180115 
	C355.762482,514.414612 355.890747,512.584045 355.462799,510.894318 
	C353.029755,501.287445 350.463867,491.714172 348.252808,481.964539 
	C352.484741,479.174927 356.406982,476.550232 360.546875,474.205322 
	C362.884155,481.178589 365.003815,487.872101 366.965240,494.982727 
	C366.537811,497.347107 366.000153,499.300446 366.044067,501.240601 
	C366.283752,511.828857 366.666473,522.413879 367.000000,533.000000 
	C297.645782,533.000000 228.291550,533.000000 158.468658,533.000000 
z"/>
<path fill="#FDFDFD" opacity="1.000000" stroke="none" 
	d="
M654.074646,362.614502 
	C665.640015,373.012787 676.066162,384.440582 684.786865,397.332794 
	C694.544006,411.757172 702.423584,427.154846 708.036621,443.677765 
	C708.276245,444.382904 708.906555,444.955353 709.677429,445.294800 
	C710.000000,474.293427 710.000000,503.586884 710.000000,533.000000 
	C632.312500,533.000000 554.624878,533.000000 476.600525,532.679077 
	C476.792938,531.141663 477.322174,529.925110 478.164856,528.450073 
	C490.565643,528.416321 502.652557,528.700256 514.740845,528.778381 
	C516.014465,528.786621 517.296021,527.583252 518.573853,526.942017 
	C517.553284,525.912659 516.716248,524.469788 515.481995,523.922058 
	C508.387177,520.773560 501.198151,517.837280 494.068878,514.485962 
	C494.502808,513.241699 494.778625,512.249634 495.334442,511.452850 
	C504.788239,497.901398 514.263184,484.364655 523.767517,470.848572 
	C526.003296,467.669067 528.364319,464.577637 530.826660,461.788025 
	C533.957031,472.822662 537.016479,483.491486 539.871826,494.214722 
	C542.114807,502.638184 544.811462,511.007721 543.145813,519.988892 
	C542.679565,522.502991 543.074707,525.176880 543.074707,527.272461 
	C559.359741,527.272461 575.091736,527.272461 590.823730,527.272461 
	C591.101562,526.960327 591.379333,526.648193 591.657166,526.336060 
	C590.452515,525.344604 589.390442,524.042114 588.019348,523.414062 
	C580.947144,520.174622 573.795898,517.107971 566.804932,513.635254 
	C581.525391,478.730499 594.995667,443.765594 605.050537,406.790985 
	C618.535034,442.557251 621.071411,479.722137 627.892334,516.063599 
	C626.744629,517.815002 625.610718,519.328430 625.217468,521.014587 
	C623.984497,526.302734 626.253479,528.986938 631.675171,528.989990 
	C643.471375,528.996582 655.269714,529.101440 667.061157,528.864258 
	C668.694458,528.831421 670.293335,527.084900 671.908081,526.131714 
	C670.546143,524.745056 669.424377,522.844666 667.774658,522.073608 
	C663.773438,520.203369 659.529968,518.849304 655.377686,517.304688 
	C650.593262,515.524902 645.801819,513.763916 640.913208,511.591370 
	C640.539001,509.561279 640.139343,507.944458 640.010620,506.306366 
	C638.932800,492.590240 637.960205,478.865692 636.849487,465.152283 
	C634.843201,440.381683 632.763367,415.617035 631.104004,390.770935 
	C631.962585,389.447784 632.952271,388.145172 632.820251,386.968445 
	C631.360657,373.962494 629.726868,360.976074 628.553467,347.998108 
	C630.345276,347.998993 631.723938,347.986176 633.300476,348.247345 
	C638.335815,355.096497 643.173218,361.671661 648.588806,369.032654 
	C650.827515,366.413483 652.451111,364.513977 654.074646,362.614502 
z"/>
<path fill="#CFD6DE" opacity="1.000000" stroke="none" 
	d="
M477.851379,528.708618 
	C477.322174,529.925110 476.792938,531.141663 476.131866,532.679077 
	C440.645782,533.000000 405.291534,533.000000 369.470093,532.545715 
	C368.701996,520.347961 368.401154,508.604523 368.353607,497.113159 
	C371.080719,503.569672 373.554565,509.774078 375.635437,516.037659 
	C371.154419,518.234192 373.530975,522.011230 373.061798,525.032288 
	C372.650360,527.681335 374.095306,529.010010 376.845612,529.002747 
	C389.330750,528.969788 401.817566,529.072876 414.298828,528.849976 
	C415.538361,528.827881 416.744293,526.925720 417.965790,525.896057 
	C416.851074,524.583008 415.993469,522.658508 414.577057,522.062927 
	C408.500336,519.507568 402.269653,517.314697 396.073364,515.049011 
	C393.138397,513.975830 390.154663,513.035828 387.111511,511.639587 
	C386.090210,507.241486 385.051025,503.259613 384.229279,499.233368 
	C381.732208,486.998596 379.319122,474.746674 377.151642,462.254700 
	C385.553864,456.252472 393.547058,450.300568 401.833160,444.788971 
	C413.385620,437.104736 422.109802,427.617554 425.149567,413.506989 
	C426.278107,408.268280 428.875000,403.345886 430.861511,398.644592 
	C431.823730,401.514465 432.747192,404.011780 433.626556,406.524506 
	C443.131683,433.684906 452.629822,460.847748 461.950256,488.331116 
	C459.379028,495.702789 456.987488,502.753235 454.250305,509.945007 
	C453.088776,515.923157 452.272858,521.759949 451.537140,527.023071 
	C461.174622,527.640381 469.513031,528.174500 477.851379,528.708618 
z"/>
<path fill="#E0E5E9" opacity="1.000000" stroke="none" 
	d="
M368.100281,496.861053 
	C368.401154,508.604523 368.701996,520.347961 369.001434,532.545715 
	C368.555542,533.000000 368.111115,533.000000 367.333313,533.000000 
	C366.666473,522.413879 366.283752,511.828857 366.044067,501.240601 
	C366.000153,499.300446 366.537811,497.347107 367.186890,495.223053 
	C367.744598,495.651184 367.922455,496.256104 368.100281,496.861053 
z"/>
<path fill="#C5CED6" opacity="1.000000" stroke="none" 
	d="
M101.005737,189.811646 
	C106.002274,180.613983 110.629623,171.189789 116.096016,162.280411 
	C121.920265,152.787735 127.976028,143.327728 134.960251,134.685486 
	C142.669525,125.146072 151.015366,115.967735 160.066940,107.709557 
	C169.142059,99.429901 179.165298,92.100349 189.262726,85.056366 
	C198.617859,78.530220 208.320633,72.354431 218.432327,67.107430 
	C226.571777,62.883842 235.470444,60.047512 244.179352,57.018616 
	C252.875153,53.994282 261.643860,51.034447 270.584991,48.903912 
	C278.594208,46.995430 286.851776,45.482006 295.052704,45.165138 
	C310.196442,44.580025 325.424744,44.266968 340.531769,45.213871 
	C354.383820,46.082115 368.203522,48.079460 381.302002,53.595551 
	C390.019104,57.266544 399.304718,59.572166 408.093170,63.094452 
	C414.090637,65.498146 419.711060,68.869392 425.423676,71.949631 
	C431.459564,75.204170 437.777863,78.109390 443.304443,82.094177 
	C452.114075,88.446114 460.585724,95.316956 468.797699,102.432976 
	C476.392426,109.014130 484.142883,115.627235 490.594971,123.265144 
	C499.987549,134.383957 508.665741,146.168152 516.899414,158.182037 
	C522.293457,166.052490 526.269287,174.884399 531.045349,183.190811 
	C543.702454,205.203598 551.038452,229.202805 556.707764,253.692657 
	C559.403137,265.336090 560.361511,277.388367 561.962769,289.274841 
	C562.531494,293.497009 562.673889,297.776642 563.008484,302.867432 
	C562.641541,305.137695 562.609375,306.784027 561.851318,307.964111 
	C559.402527,311.776215 560.473389,314.433624 563.668335,317.288513 
	C568.341370,321.464203 572.654602,326.050934 577.001709,330.577240 
	C578.061829,331.681061 578.656860,333.231628 579.221558,334.880371 
	C577.643127,337.633118 576.308899,340.082275 574.694946,342.781250 
	C573.388367,344.882843 572.247070,345.710938 570.074463,344.303009 
	C564.776245,340.869598 559.351929,337.630676 553.847534,334.030487 
	C549.883362,331.832153 546.049988,329.916748 542.010742,327.696167 
	C532.082703,303.006439 523.274231,278.386963 521.759460,251.809128 
	C521.699768,250.761597 520.043884,249.805023 519.127930,248.392242 
	C519.086792,246.319992 519.049500,244.661591 519.349487,243.150818 
	C521.655823,244.102142 523.604431,245.496155 525.598877,245.564926 
	C528.291931,245.657776 532.735474,245.523651 533.398193,244.088196 
	C535.100403,240.401123 535.131958,235.942749 535.845398,231.371552 
	C534.872131,225.348816 533.884766,219.747192 532.933960,213.753250 
	C534.117249,208.295334 533.017517,206.769745 527.739136,206.009903 
	C526.116882,205.776398 524.509827,205.437622 522.895325,205.149750 
	C514.988464,203.739899 506.760925,207.209366 504.087921,213.079636 
	C500.295471,221.408508 501.778870,229.510178 508.093140,235.543930 
	C507.123230,240.569214 506.188934,245.198776 504.932983,249.985840 
	C489.942932,260.161346 477.905823,272.827271 467.337097,287.002289 
	C465.687866,289.214264 463.580200,291.084473 461.415527,292.919006 
	C460.232239,291.160583 459.426941,289.519012 458.386200,288.043518 
	C450.633301,277.051941 442.833710,266.093292 435.028137,254.719055 
	C435.262390,251.306900 433.923523,249.804337 430.843903,249.553253 
	C430.620697,247.559250 430.418579,245.936920 430.128510,243.608383 
	C432.042664,244.288528 432.966644,244.577011 433.860107,244.940521 
	C442.113678,248.298584 444.560944,247.420654 445.857452,238.783981 
	C446.772400,232.689331 445.987213,226.339432 446.350525,220.037231 
	C450.261932,216.101654 449.420746,209.606842 444.899078,205.757050 
	C434.242340,196.683762 415.908691,201.061020 410.842316,214.040894 
	C410.195953,215.696823 410.368500,218.057388 411.018188,219.765793 
	C413.484009,226.249741 416.301819,232.599838 418.936340,239.378693 
	C418.287567,242.491089 417.690460,245.224777 416.809570,248.172638 
	C416.301361,249.057800 416.076965,249.728806 415.407043,250.382294 
	C408.380432,249.591690 401.812225,248.350601 395.214783,248.168335 
	C387.588867,247.957642 383.782562,253.542694 385.884094,260.843842 
	C387.511810,266.498871 389.489960,271.919708 395.344421,273.620636 
	C389.922180,284.596985 384.641022,295.287720 378.990601,305.982422 
	C358.891571,303.833374 347.387177,292.046204 341.387390,273.654724 
	C341.037231,276.849976 340.807251,279.730865 341.375732,282.444489 
	C343.779846,293.919800 346.608429,305.307709 348.924896,316.799530 
	C351.332123,328.741516 355.321014,339.182190 369.002319,342.429779 
	C368.363403,352.869781 367.746185,362.887085 367.050659,373.260193 
	C366.221069,374.520508 365.469757,375.425079 364.487671,376.052856 
	C360.785431,367.319946 357.113342,358.937988 353.947266,350.369080 
	C352.777496,347.203064 351.431793,345.972900 347.955383,346.025269 
	C336.310883,346.200714 324.660614,345.992920 312.955505,345.533203 
	C312.276398,339.491608 311.654358,333.848633 311.321411,327.978760 
	C318.187744,324.481934 318.178467,324.484344 316.251343,317.072845 
	C315.582428,314.500305 314.972015,311.912506 314.787476,309.276367 
	C329.217865,306.419312 338.394440,296.645416 333.813232,288.902191 
	C329.587769,290.804321 325.315033,292.727692 320.639282,294.832489 
	C320.120758,292.067535 319.780426,290.252563 319.440063,288.437561 
	C319.044281,288.305359 318.648499,288.173157 318.252716,288.040985 
	C316.955353,290.208557 315.795502,292.475800 314.319000,294.513611 
	C313.037262,296.282623 311.397034,297.791931 309.545593,299.289124 
	C307.585876,299.526855 305.964233,299.789764 304.410675,300.272095 
	C291.090790,304.407379 277.650970,307.937805 263.566040,307.833252 
	C261.758911,307.819824 259.959198,306.811584 258.528076,306.171875 
	C268.672577,303.745667 277.062256,298.835266 284.298676,292.002899 
	C285.416718,290.947266 285.461121,288.754425 286.308563,286.903931 
	C292.019867,284.166138 297.424622,281.611877 302.829346,279.057648 
	C302.692902,278.646210 302.556458,278.234772 302.419983,277.823364 
	C300.958588,277.294922 299.497192,276.766479 297.342896,275.987488 
	C299.009064,272.149200 300.551422,268.596161 302.537354,265.068573 
	C306.765228,264.712250 311.072296,266.543732 314.020172,262.589813 
	C316.932007,258.684204 320.339233,257.036499 324.961029,259.809570 
	C325.440826,260.097473 326.255676,259.826965 327.280518,259.925507 
	C329.113007,260.323853 330.580017,260.612213 332.378601,261.070984 
	C335.451416,262.546265 338.076813,264.355042 340.965424,265.019287 
	C344.076202,265.734589 347.587494,265.973083 350.607361,265.193298 
	C351.807831,264.883301 352.737396,261.291107 352.775146,259.175079 
	C352.854645,254.720795 352.746521,250.153549 351.839630,245.815765 
	C350.299957,238.451447 348.083313,231.228653 346.076935,223.607605 
	C340.920929,215.998611 333.726532,213.283188 325.701752,215.606537 
	C317.649200,217.937927 313.920563,223.510269 312.825989,232.573044 
	C312.293121,236.984680 310.897217,241.955643 308.190277,245.293228 
	C303.564301,250.996933 301.417542,256.946930 301.539398,264.040222 
	C299.463806,264.811188 297.529999,265.333679 296.095673,266.480743 
	C291.306244,270.311035 286.695679,274.364990 281.666412,278.195923 
	C279.686798,278.773682 278.033813,279.439941 276.431885,280.212128 
	C268.708435,283.935028 260.939362,287.477386 252.034821,286.718140 
	C249.888962,277.071259 247.770050,267.829315 245.576431,258.261627 
	C244.010178,258.155365 242.063812,258.023285 240.097076,257.532837 
	C240.186203,256.269379 240.295685,255.364319 240.429581,254.257584 
	C242.318619,254.976654 243.858612,255.581818 245.411865,256.150787 
	C251.464554,258.367889 254.260681,257.094147 255.735092,251.011307 
	C257.729950,242.781143 257.677032,234.612335 254.230606,226.489960 
	C254.277939,224.687790 254.728821,222.271439 253.911057,221.713043 
	C249.423767,218.649033 244.625656,216.040207 239.308762,212.906403 
	C239.763626,205.668121 237.190308,199.188400 232.730667,198.070190 
	C224.520172,196.011520 215.531296,198.730606 212.571350,204.168274 
	C209.733246,209.382111 212.699005,216.964279 219.767853,222.833481 
	C218.722107,226.579575 217.451080,230.194473 216.724884,233.915695 
	C214.799698,243.780823 218.668167,248.689789 228.666977,250.029266 
	C228.077698,252.942352 227.604294,255.417419 226.751617,257.955383 
	C224.684326,259.119202 222.328033,259.826721 221.412415,261.382263 
	C212.907990,275.830139 206.829926,291.168701 204.980927,308.226196 
	C200.163589,309.632660 195.764587,311.282684 191.217316,312.027771 
	C175.942017,314.530640 172.317032,312.479523 165.608780,298.268158 
	C160.654984,287.773499 155.820053,277.221924 150.757568,266.780365 
	C150.052200,265.325562 148.345871,264.356079 147.065079,262.730682 
	C146.993423,259.575317 147.659744,256.327362 143.063171,256.605011 
	C143.055618,254.636093 143.055618,253.073822 143.055618,251.145142 
	C144.755997,251.823730 145.961090,252.325623 147.181137,252.788086 
	C154.538864,255.577133 157.549637,253.851746 158.847473,246.001358 
	C160.193436,237.859955 159.540466,229.879593 156.743652,221.722778 
	C155.665848,219.329849 154.985153,216.218155 153.309189,215.529861 
	C148.985947,213.754349 144.274277,212.675903 139.619171,212.034378 
	C135.765137,211.503250 133.184311,211.036224 132.054962,206.312729 
	C129.707962,196.496582 123.241409,190.580917 112.789131,189.935211 
	C108.873726,189.693329 104.934242,189.841370 101.005737,189.811646 
z"/>
<path fill="#FE4234" opacity="1.000000" stroke="none" 
	d="
M57.035889,366.736267 
	C58.829041,358.539215 60.160923,350.205353 62.540733,342.182312 
	C65.091476,333.582977 68.628311,325.276154 72.255363,316.384460 
	C73.952721,313.936676 75.234879,312.000305 76.289879,309.947174 
	C86.107635,290.840729 100.143013,275.347565 117.203728,262.532227 
	C121.120392,259.590179 125.613884,257.416016 130.250824,254.934692 
	C132.467697,255.378586 134.275696,255.776230 136.052505,256.568848 
	C136.401367,258.748077 136.704422,260.552734 137.172943,262.313416 
	C144.377335,289.385773 150.319962,316.667694 150.919739,345.261719 
	C150.462936,349.163818 150.184906,352.649719 149.693909,356.105316 
	C149.183807,359.695465 147.423859,361.251678 143.350647,361.204865 
	C127.699997,361.025024 112.044052,361.305603 95.941422,361.322327 
	C95.053505,359.673615 94.070023,358.043945 94.267525,356.572815 
	C95.212280,349.535553 96.516304,342.547241 97.600204,335.527313 
	C97.866608,333.801910 97.786079,332.022949 97.865044,330.268585 
	C91.025322,339.597015 85.034904,348.898529 79.138023,358.258972 
	C77.567429,360.752014 76.283478,363.425659 74.867920,366.016388 
	C73.185814,367.346405 71.503716,368.676422 69.261063,369.705261 
	C64.812302,368.514801 60.924095,367.625519 57.035889,366.736267 
z"/>
<path fill="#5D63AB" opacity="1.000000" stroke="none" 
	d="
M96.390091,361.414429 
	C112.044052,361.305603 127.699997,361.025024 143.350647,361.204865 
	C147.423859,361.251678 149.183807,359.695465 149.693909,356.105316 
	C150.184906,352.649719 150.462936,349.163818 151.322021,345.275085 
	C152.878708,344.916992 153.947922,344.975037 154.958618,345.412262 
	C150.472519,357.111572 146.001404,368.415131 141.669785,379.771881 
	C141.096741,381.274261 141.234482,383.047760 141.043030,384.695679 
	C140.038513,385.684387 138.755783,386.510956 138.070938,387.685974 
	C126.511238,407.519867 115.016602,427.391754 103.542068,447.275146 
	C102.634781,448.847351 101.981461,450.566071 101.145844,452.559601 
	C91.599823,467.521515 82.351875,482.301147 72.488693,496.658142 
	C69.661812,500.772949 67.344803,507.228821 59.366131,504.525452 
	C54.900009,503.447845 50.944279,502.801208 46.988548,502.154572 
	C43.530479,502.078735 43.025311,501.098724 44.589546,497.689209 
	C49.059956,487.945343 53.292423,478.062927 57.007530,468.009247 
	C61.699490,455.312103 65.741814,442.376007 70.151535,429.573029 
	C73.708946,419.244507 77.395653,408.960480 81.399658,398.087219 
	C86.646233,385.483276 91.518158,373.448883 96.390091,361.414429 
z"/>
<path fill="#313777" opacity="1.000000" stroke="none" 
	d="
M579.465698,334.576782 
	C578.656860,333.231628 578.061829,331.681061 577.001709,330.577240 
	C572.654602,326.050934 568.341370,321.464203 563.668335,317.288513 
	C560.473389,314.433624 559.402527,311.776215 561.851318,307.964111 
	C562.609375,306.784027 562.641541,305.137695 563.072815,303.320068 
	C567.684998,294.824036 571.827332,286.449951 576.894592,278.678955 
	C581.526672,271.575409 587.142639,265.111176 592.394043,258.419342 
	C592.703491,258.025024 593.628174,258.113403 595.036011,258.001038 
	C597.944458,258.631348 600.083496,259.237762 602.262817,260.214111 
	C603.548584,264.687225 605.493286,268.720551 605.911255,272.906372 
	C607.277344,286.586823 607.932922,300.336670 609.159058,314.033173 
	C610.176025,325.393768 611.613098,336.716766 612.829102,348.511047 
	C613.144958,353.821594 613.495728,358.677521 613.862366,363.753204 
	C603.483765,363.753204 593.734680,363.753204 583.987061,363.365540 
	C583.277649,360.001526 582.380432,357.053131 581.929138,354.037964 
	C581.677673,352.357819 582.168335,350.566589 582.590942,349.015015 
	C585.167419,351.572296 587.477600,353.940002 590.642151,357.183319 
	C590.928955,353.833832 591.074951,352.128540 591.278381,349.752319 
	C595.290894,349.752319 599.062439,349.752319 602.834045,349.752319 
	C603.010925,349.166565 603.187866,348.580811 603.364746,347.995087 
	C598.601013,345.622894 593.837219,343.250702 589.373779,340.606262 
	C593.924683,340.130157 598.175293,339.926392 602.544434,339.716919 
	C602.544434,336.987640 602.544434,334.655945 602.544434,330.955688 
	C596.444458,333.955322 591.203979,336.532349 585.652710,338.979980 
	C583.383240,337.425995 581.424438,336.001404 579.465698,334.576782 
z"/>
<path fill="#3599FE" opacity="1.000000" stroke="none" 
	d="
M100.606339,189.893585 
	C104.934242,189.841370 108.873726,189.693329 112.789131,189.935211 
	C123.241409,190.580917 129.707962,196.496582 132.054962,206.312729 
	C133.184311,211.036224 135.765137,211.503250 139.619171,212.034378 
	C144.274277,212.675903 148.985947,213.754349 153.309189,215.529861 
	C154.985153,216.218155 155.665848,219.329849 156.419357,221.790085 
	C152.390945,224.687637 148.810425,227.243454 145.060501,229.520294 
	C143.661606,230.369644 141.892273,230.837967 140.246445,230.990753 
	C138.390320,231.163086 136.482986,230.784119 134.597931,230.644928 
	C134.603973,232.920425 133.885162,235.542496 134.771820,237.396988 
	C136.450867,240.908783 135.782486,242.672119 131.782349,243.478790 
	C125.924828,242.247787 121.464905,239.233429 120.353386,233.830536 
	C118.397423,224.322845 120.904999,216.141129 130.462555,210.765762 
	C126.106232,210.036240 121.915955,209.359116 118.038483,210.172745 
	C109.093811,212.049652 100.264153,214.098038 91.104675,211.830231 
	C86.981430,207.518112 82.304672,207.039368 76.633568,210.090302 
	C71.685585,212.752182 66.756706,215.520920 61.584320,217.679031 
	C51.780006,221.769699 42.220516,221.103363 33.272308,215.032852 
	C29.431810,212.427444 27.757452,205.021500 29.502537,199.939484 
	C34.481060,185.441010 54.832520,180.451065 65.975174,188.484695 
	C75.702538,195.497940 85.875931,195.346329 96.471184,190.914322 
	C97.642403,190.424408 98.958199,190.280121 100.606339,189.893585 
z"/>
<path fill="#C5CDD5" opacity="1.000000" stroke="none" 
	d="
M90.958130,212.206436 
	C100.264153,214.098038 109.093811,212.049652 118.038483,210.172745 
	C121.915955,209.359116 126.106232,210.036240 130.462555,210.765762 
	C120.904999,216.141129 118.397423,224.322845 120.353386,233.830536 
	C121.464905,239.233429 125.924828,242.247787 131.721344,243.830963 
	C131.310501,247.827240 130.576202,251.357849 129.841919,254.888443 
	C125.613884,257.416016 121.120392,259.590179 117.203728,262.532227 
	C100.143013,275.347565 86.107635,290.840729 76.289879,309.947174 
	C75.234879,312.000305 73.952721,313.936676 72.459320,316.087952 
	C73.102692,301.391266 72.646790,286.267761 75.376099,271.742767 
	C78.897926,253.000137 84.969833,234.736816 89.935410,216.264908 
	C90.262810,215.046982 90.521126,213.810501 90.958130,212.206436 
z"/>
<path fill="#1B1A49" opacity="1.000000" stroke="none" 
	d="
M654.264465,362.366150 
	C652.451111,364.513977 650.827515,366.413483 648.588806,369.032654 
	C643.173218,361.671661 638.335815,355.096497 633.350952,347.862183 
	C627.672058,329.092316 621.763184,311.084259 616.793945,292.820557 
	C614.793457,285.468018 614.852722,277.555115 613.974609,269.897217 
	C625.632812,293.058777 641.526245,313.007233 660.289307,330.752289 
	C663.408508,333.702271 666.906433,336.249329 670.081604,339.144562 
	C670.815491,339.813782 670.942078,341.148987 670.816895,342.500366 
	C667.893127,345.822388 665.500732,348.821716 663.108337,351.821014 
	C660.223633,355.253296 657.338928,358.685547 654.264465,362.366150 
z"/>
<path fill="#F2CF57" opacity="1.000000" stroke="none" 
	d="
M594.972778,256.095428 
	C585.531982,254.396118 577.563782,250.120026 573.801636,241.004654 
	C570.887451,233.943863 571.046936,226.316071 574.414856,219.175613 
	C577.459595,212.720062 582.386658,207.997757 589.087036,205.566788 
	C592.058228,204.488846 595.412415,204.144699 598.606873,204.069824 
	C605.773071,203.901855 612.879517,203.321732 619.518860,207.728073 
	C626.932678,212.648438 632.256775,223.515610 625.136963,232.711945 
	C623.616516,230.452271 622.721130,228.243530 621.702087,225.729828 
	C618.869446,226.949432 616.595581,227.888794 614.355042,228.901886 
	C610.411804,230.684906 606.332458,232.249527 602.632324,234.447937 
	C601.087708,235.365723 599.914185,237.533905 599.357605,239.371506 
	C597.688110,244.883179 596.406067,250.512207 594.972778,256.095428 
z"/>
<path fill="#D8DEE5" opacity="1.000000" stroke="none" 
	d="
M613.964600,269.449219 
	C614.852722,277.555115 614.793457,285.468018 616.793945,292.820557 
	C621.763184,311.084259 627.672058,329.092316 633.153076,347.588196 
	C631.723938,347.986176 630.345276,347.998993 628.101074,347.988251 
	C624.854553,348.024292 622.473511,348.083923 619.642212,348.086639 
	C617.082642,348.038605 614.973328,348.047516 612.864136,348.056396 
	C611.613098,336.716766 610.176025,325.393768 609.159058,314.033173 
	C607.932922,300.336670 607.277344,286.586823 605.911255,272.906372 
	C605.493286,268.720551 603.548584,264.687225 602.694092,260.225494 
	C605.384644,259.833374 607.684204,259.799805 609.983826,259.766235 
	C611.230286,259.908112 612.476685,260.049988 613.954651,260.218201 
	C613.954651,263.203613 613.954651,266.102448 613.964600,269.449219 
z"/>
<path fill="#C5CFD5" opacity="1.000000" stroke="none" 
	d="
M91.320992,130.759552 
	C98.248825,141.480988 93.896851,152.090958 83.861038,157.637375 
	C78.183517,160.775116 64.686386,155.562592 62.062805,149.274139 
	C57.112030,137.407593 62.953644,126.826401 73.910309,123.547394 
	C79.987404,121.728699 87.265022,124.655556 91.320992,130.759552 
z"/>
<path fill="#BC7A3C" opacity="1.000000" stroke="none" 
	d="
M609.994141,259.416931 
	C607.684204,259.799805 605.384644,259.833374 602.653748,259.855560 
	C600.083496,259.237762 597.944458,258.631348 595.404663,257.961548 
	C595.001465,257.497742 594.999084,257.097382 594.984741,256.396210 
	C596.406067,250.512207 597.688110,244.883179 599.357605,239.371506 
	C599.914185,237.533905 601.087708,235.365723 602.632324,234.447937 
	C606.332458,232.249527 610.411804,230.684906 614.355042,228.901886 
	C616.595581,227.888794 618.869446,226.949432 621.702087,225.729828 
	C622.721130,228.243530 623.616516,230.452271 624.804016,232.878265 
	C625.062866,237.931717 625.080505,242.768890 624.985352,247.603851 
	C624.798584,257.090759 622.496460,258.957062 613.492004,256.908630 
	C612.114868,256.595337 610.822205,255.911026 608.822388,255.141113 
	C609.317505,256.785828 609.661011,257.926727 609.994141,259.416931 
z"/>
<path fill="#C5CBD3" opacity="1.000000" stroke="none" 
	d="
M95.941429,361.322327 
	C91.518158,373.448883 86.646233,385.483276 81.498337,397.709686 
	C79.804390,389.716248 78.444832,381.519958 76.929733,373.352539 
	C76.521065,371.149536 75.640450,369.034119 74.922195,366.447449 
	C76.283478,363.425659 77.567429,360.752014 79.138023,358.258972 
	C85.034904,348.898529 91.025322,339.597015 97.865044,330.268585 
	C97.786079,332.022949 97.866608,333.801910 97.600204,335.527313 
	C96.516304,342.547241 95.212280,349.535553 94.267525,356.572815 
	C94.070023,358.043945 95.053505,359.673615 95.941429,361.322327 
z"/>
<path fill="#E2E1E0" opacity="1.000000" stroke="none" 
	d="
M56.964180,508.788788 
	C63.553341,511.819641 70.138557,514.859192 76.740837,517.861206 
	C77.164146,518.053650 77.720406,517.945679 78.213104,517.994629 
	C85.223015,518.691406 85.222946,518.692139 84.742867,525.915161 
	C70.199104,525.915161 55.632362,525.923889 41.065716,525.890564 
	C40.297077,525.888794 39.331364,525.760803 38.794437,525.299377 
	C36.097946,522.981934 38.433514,513.549683 42.591366,512.379639 
	C47.254250,514.982178 50.874187,515.089172 53.840942,510.769623 
	C54.482800,509.835144 55.902676,509.435028 56.964180,508.788788 
z"/>
<path fill="#FA9817" opacity="1.000000" stroke="none" 
	d="
M56.672775,366.849335 
	C60.924095,367.625519 64.812302,368.514801 68.901978,369.729248 
	C64.802902,375.432770 68.089699,380.910767 68.195015,387.626617 
	C66.455894,386.585571 64.333199,385.881409 63.059723,384.431396 
	C60.618523,381.651825 58.463005,380.827911 54.772102,382.479156 
	C50.594105,384.348328 45.972950,386.555786 41.305904,383.873199 
	C39.869377,383.047485 38.426517,381.175171 38.216694,379.616516 
	C38.056648,378.427673 39.545906,376.499634 40.807583,375.727509 
	C45.867779,372.630676 51.125187,369.856110 56.672775,366.849335 
z"/>
<path fill="#C5CED7" opacity="1.000000" stroke="none" 
	d="
M13.813656,268.323303 
	C8.805346,264.128174 9.190642,259.144043 11.104288,254.216766 
	C12.519544,250.572739 15.610268,249.063324 19.681168,248.913239 
	C24.521090,248.734772 27.343393,251.282288 28.891293,255.199951 
	C30.816696,260.073029 28.696520,266.706512 25.098047,268.998199 
	C21.325134,271.400940 17.646925,271.746948 13.813656,268.323303 
z"/>
<path fill="#B9783A" opacity="1.000000" stroke="none" 
	d="
M663.462830,351.889038 
	C665.500732,348.821716 667.893127,345.822388 670.641113,342.766846 
	C676.555298,349.552399 685.036560,352.134796 691.868347,357.110870 
	C693.156494,358.049164 693.853088,359.799622 694.822693,361.175293 
	C693.077087,361.719269 691.328796,362.706024 689.586670,362.695099 
	C687.412781,362.681519 685.243958,361.846100 682.671143,361.276520 
	C682.285583,363.256195 681.955322,364.951782 681.616150,366.693542 
	C678.007996,367.839325 676.524719,365.296234 674.988892,362.989044 
	C672.022766,358.533081 669.141479,354.015320 663.462830,351.889038 
z"/>
<path fill="#F79A1D" opacity="1.000000" stroke="none" 
	d="
M57.127026,508.492920 
	C55.902676,509.435028 54.482800,509.835144 53.840942,510.769623 
	C50.874187,515.089172 47.254250,514.982178 42.980511,512.390869 
	C44.191296,508.985901 45.583714,505.935516 46.982338,502.519867 
	C50.944279,502.801208 54.900009,503.447845 58.933838,504.462128 
	C58.437912,505.952179 57.863892,507.074585 57.127026,508.492920 
z"/>
<path fill="#DA2823" opacity="1.000000" stroke="none" 
	d="
M306.616882,445.179443 
	C313.069702,462.778564 319.550659,480.367462 325.930389,497.993011 
	C326.548370,499.700439 328.742035,502.111542 324.135925,503.098145 
	C320.221893,504.451385 317.050385,505.749481 313.878906,507.047607 
	C308.815338,508.943237 306.447235,505.480042 304.029846,502.100708 
	C291.636017,484.775055 279.239319,467.451508 266.515778,449.554260 
	C262.926239,443.918915 259.664581,438.856506 256.272491,433.461060 
	C251.099854,424.267700 246.057632,415.407410 241.019104,406.158203 
	C241.391891,403.849426 241.685867,401.911499 242.142853,400.012817 
	C244.400085,390.634827 246.700455,381.267212 249.277817,371.680786 
	C257.020874,370.752533 261.212860,366.406769 262.973663,359.391418 
	C263.700073,356.497345 264.349030,353.583801 265.284546,350.940552 
	C271.329773,363.232117 277.123657,375.262268 282.944702,387.656433 
	C286.644623,396.690460 290.317383,405.360474 294.003082,414.391266 
	C295.669525,417.712708 297.322998,420.673370 298.929779,424.053650 
	C301.461029,431.375366 304.038971,438.277405 306.616882,445.179443 
z"/>
<path fill="#313776" opacity="1.000000" stroke="none" 
	d="
M141.313263,384.916718 
	C141.234482,383.047760 141.096741,381.274261 141.669785,379.771881 
	C146.001404,368.415131 150.472519,357.111572 155.405838,345.337219 
	C159.448364,345.003204 162.985153,345.123383 166.694183,345.538971 
	C178.250427,356.065826 189.634399,366.297272 201.146561,376.809021 
	C208.145767,384.494965 215.037704,391.881287 221.880798,399.312561 
	C226.875290,404.736298 228.750870,411.183533 226.390274,418.147125 
	C223.744080,425.953247 220.322723,433.496368 217.246063,441.156891 
	C216.466599,443.097656 215.715500,445.049835 214.979675,447.004150 
	C215.007965,447.011505 215.018433,446.953979 214.718689,446.923309 
	C214.189758,447.217346 213.960556,447.542023 213.497803,448.097839 
	C212.097198,450.425690 210.930161,452.522430 209.763123,454.619141 
	C204.904495,460.740997 200.124283,466.927856 195.137085,472.943115 
	C193.731461,474.638519 191.719437,475.831207 189.303864,477.015015 
	C185.511124,475.793396 182.400101,474.811218 179.289062,473.829071 
	C179.082809,472.362000 178.400101,470.767151 178.753311,469.450104 
	C180.233353,463.931244 182.023819,458.495605 183.971802,452.359528 
	C188.178268,441.838806 192.122070,431.991425 196.043427,422.135132 
	C197.181656,419.274200 197.963470,416.512787 193.439728,416.049713 
	C180.472107,408.799255 167.432846,401.672577 154.575317,394.231842 
	C150.017029,391.593933 145.901260,388.191284 141.313263,384.916718 
z"/>
<path fill="#D5AA82" opacity="1.000000" stroke="none" 
	d="
M368.353577,497.113159 
	C367.922455,496.256104 367.744598,495.651184 367.345093,494.805908 
	C365.003815,487.872101 362.884155,481.178589 360.538208,473.794220 
	C358.563385,467.034790 356.814911,460.966187 355.066406,454.897614 
	C352.345825,444.914642 351.757507,434.252808 345.407349,424.751617 
	C344.436615,422.117706 343.716431,420.077850 343.466125,418.040466 
	C351.320160,417.802124 358.704346,417.561310 366.053589,417.710083 
	C367.776154,425.821564 369.533691,433.543518 371.302124,441.632202 
	C373.166412,448.833130 375.019867,455.667297 376.873322,462.501434 
	C379.319122,474.746674 381.732208,486.998596 384.229279,499.233368 
	C385.051025,503.259613 386.090210,507.241486 387.070740,512.038940 
	C385.780029,517.436157 382.569641,518.346924 376.028381,515.978516 
	C373.554565,509.774078 371.080719,503.569672 368.353577,497.113159 
z"/>
<path fill="#FD4336" opacity="1.000000" stroke="none" 
	d="
M193.200531,416.330536 
	C197.963470,416.512787 197.181656,419.274200 196.043427,422.135132 
	C192.122070,431.991425 188.178268,441.838806 184.024506,452.011658 
	C171.343872,451.789856 158.881714,451.245941 146.123474,450.045227 
	C144.770676,445.809540 143.713928,442.230621 142.657181,438.651733 
	C143.910217,437.589874 144.995605,436.102142 146.442444,435.532532 
	C159.725311,430.303253 173.086563,425.273376 186.383041,420.078064 
	C188.677078,419.181702 190.773590,417.779785 193.200531,416.330536 
z"/>
<path fill="#D7AA82" opacity="1.000000" stroke="none" 
	d="
M256.402893,433.794067 
	C259.664581,438.856506 262.926239,443.918915 266.277405,449.313660 
	C260.548981,450.704620 254.744781,451.847321 248.909592,452.800110 
	C241.894974,453.945526 234.853989,454.929352 227.029846,455.983765 
	C219.588608,454.630554 220.997391,449.463257 221.115295,444.713501 
	C221.696625,444.305756 222.176590,444.139557 223.074936,443.980164 
	C230.595078,441.868347 237.708618,439.788086 244.793991,437.615814 
	C248.688141,436.421936 252.534805,435.073059 256.402893,433.794067 
z"/>
<path fill="#1E1D4C" opacity="1.000000" stroke="none" 
	d="
M347.943146,482.129486 
	C350.463867,491.714172 353.029755,501.287445 355.462799,510.894318 
	C355.890747,512.584045 355.762482,514.414612 355.891083,516.180115 
	C355.242493,516.398804 354.593903,516.617493 353.945312,516.836182 
	C343.874146,504.591980 333.803009,492.347748 323.202545,479.460022 
	C327.695953,476.244995 332.335266,472.925568 337.472839,469.960236 
	C341.295135,474.252716 344.619141,478.191101 347.943146,482.129486 
z"/>
<path fill="#D5A881" opacity="1.000000" stroke="none" 
	d="
M306.839325,444.848877 
	C304.038971,438.277405 301.461029,431.375366 299.283386,423.986450 
	C303.621124,421.117096 301.252533,417.193726 302.463379,413.988159 
	C310.350098,414.619629 317.770691,415.294067 325.108337,416.350952 
	C324.508881,419.616364 323.992371,422.499268 323.475861,425.382202 
	C323.217773,426.687134 322.934570,427.987671 322.705719,429.297729 
	C321.352539,437.043427 318.554169,443.331390 309.102570,443.212494 
	C308.427887,443.204010 307.742279,444.062775 306.839325,444.848877 
z"/>
<path fill="#E2E2E2" opacity="1.000000" stroke="none" 
	d="
M327.962616,513.024231 
	C329.516663,512.963562 331.242584,512.429016 332.596527,512.920105 
	C340.665405,515.846436 348.705200,518.875305 356.608521,522.215637 
	C358.051056,522.825378 358.819763,525.029358 359.899536,526.497314 
	C358.492096,527.325806 357.096100,528.850037 355.675476,528.873291 
	C343.850403,529.067261 332.018280,529.108948 320.194977,528.867249 
	C318.140106,528.825317 314.402100,527.270081 314.382874,526.352234 
	C314.308929,522.817627 311.830566,518.181152 317.865845,516.188110 
	C324.277252,518.455139 327.027802,517.482361 327.962616,513.024231 
z"/>
<path fill="#E3E3E2" opacity="1.000000" stroke="none" 
	d="
M186.819000,481.925201 
	C188.525497,482.769653 190.467453,483.328522 191.897797,484.507904 
	C198.120987,489.639069 204.284851,494.852875 210.236160,500.292786 
	C211.237503,501.208038 211.414566,503.406647 211.307068,504.966431 
	C211.263763,505.594208 209.176376,506.811707 208.447327,506.553284 
	C194.941437,501.766174 181.500290,496.796326 167.424545,491.637360 
	C168.845566,488.222534 169.693161,485.346405 171.219070,482.892029 
	C171.924911,481.756653 173.953873,481.443909 175.820496,481.211823 
	C180.609207,485.538696 183.191971,485.602234 186.819000,481.925201 
z"/>
<path fill="#E3E3E3" opacity="1.000000" stroke="none" 
	d="
M130.971664,452.276978 
	C134.821854,453.336334 135.403076,455.566254 134.480850,459.389923 
	C132.632935,467.051666 131.546127,474.894318 129.891830,482.607971 
	C129.622147,483.865417 128.054764,484.844543 127.087173,485.952301 
	C125.821251,484.766998 123.710083,483.753845 123.427902,482.368256 
	C121.719742,473.980438 120.454460,465.503143 118.986580,457.065247 
	C118.421776,453.818604 117.289322,450.605560 117.223091,447.360687 
	C117.180435,445.270935 118.047562,441.981903 119.493301,441.289276 
	C122.463631,439.866302 126.375404,437.878876 129.009338,443.223969 
	C129.671753,446.775238 130.321701,449.526123 130.971664,452.276978 
z"/>
<path fill="#E2E2E2" opacity="1.000000" stroke="none" 
	d="
M221.013947,444.955017 
	C220.997391,449.463257 219.588608,454.630554 226.611755,456.026184 
	C225.931610,461.734222 224.843964,467.394928 223.829315,473.068726 
	C223.165451,476.780884 222.887894,480.590271 221.880920,484.200928 
	C221.393448,485.948822 219.625900,487.339752 218.437897,488.892303 
	C217.471405,487.634369 215.922852,486.497559 215.631912,485.099091 
	C213.584396,475.256409 211.795746,465.359894 209.843765,455.049866 
	C210.930161,452.522430 212.097198,450.425690 213.789337,448.058655 
	C214.549118,447.510223 214.783783,447.232117 215.018433,446.953979 
	C215.018433,446.953979 215.007965,447.011505 215.340195,447.049377 
	C217.452942,446.376526 219.233444,445.665771 221.013947,444.955017 
z"/>
<path fill="#3048FB" opacity="1.000000" stroke="none" 
	d="
M348.252808,481.964539 
	C344.619141,478.191101 341.295135,474.252716 337.832336,469.962158 
	C343.294189,464.833527 348.894836,460.057068 354.780945,455.089111 
	C356.814911,460.966187 358.563385,467.034790 360.320557,473.514465 
	C356.406982,476.550232 352.484741,479.174927 348.252808,481.964539 
z"/>
<path fill="#272FCE" opacity="1.000000" stroke="none" 
	d="
M323.896759,425.483185 
	C323.992371,422.499268 324.508881,419.616364 325.531006,416.353760 
	C331.689819,416.662018 337.343048,417.349976 342.996246,418.037964 
	C343.716431,420.077850 344.436615,422.117706 345.151611,424.521118 
	C338.203491,425.117798 331.260559,425.350983 323.896759,425.483185 
z"/>
<path fill="#BA7B41" opacity="1.000000" stroke="none" 
	d="
M131.411469,452.229797 
	C130.321701,449.526123 129.671753,446.775238 129.087891,443.619812 
	C133.421204,441.761932 137.688416,440.308655 142.306396,438.753571 
	C143.713928,442.230621 144.770676,445.809540 145.812897,449.776245 
	C141.149353,450.836884 136.500320,451.509735 131.411469,452.229797 
z"/>
<path fill="#BA7B41" opacity="1.000000" stroke="none" 
	d="
M327.705170,512.786682 
	C327.027802,517.482361 324.277252,518.455139 318.256134,516.176208 
	C316.618744,513.257812 315.286224,510.512543 313.916321,507.407440 
	C317.050385,505.749481 320.221893,504.451385 323.771179,503.186584 
	C325.248566,506.329620 326.348145,509.439392 327.705170,512.786682 
z"/>
<path fill="#F79A1D" opacity="1.000000" stroke="none" 
	d="
M186.934906,481.612000 
	C183.191971,485.602234 180.609207,485.538696 176.125854,481.340149 
	C177.015869,478.855286 178.038040,476.695740 179.174652,474.182617 
	C182.400101,474.811218 185.511124,475.793396 188.941437,476.996704 
	C188.524078,478.578156 187.787445,479.938507 186.934906,481.612000 
z"/>
<path fill="#BC7B3E" opacity="1.000000" stroke="none" 
	d="
M628.244995,515.904724 
	C621.071411,479.722137 618.535034,442.557251 605.050537,406.790985 
	C594.995667,443.765594 581.525391,478.730499 566.471680,513.622314 
	C563.998291,511.955475 560.723022,510.221130 560.237671,507.902740 
	C559.097839,502.457520 559.291992,496.733063 559.277710,490.926331 
	C560.962402,485.269379 562.337158,479.813019 563.665100,474.345276 
	C570.373596,446.724884 576.442078,419.016602 575.505493,390.214661 
	C587.946899,390.011322 599.929260,389.891632 612.379761,389.844482 
	C618.803345,390.227966 624.758728,390.538940 630.714172,390.849915 
	C632.763367,415.617035 634.843201,440.381683 636.849487,465.152283 
	C637.960205,478.865692 638.932800,492.590240 640.010620,506.306366 
	C640.139343,507.944458 640.539001,509.561279 640.748901,511.923523 
	C638.604126,517.680176 635.490723,518.492432 628.244995,515.904724 
z"/>
<path fill="#1D1C4A" opacity="1.000000" stroke="none" 
	d="
M558.946167,491.121643 
	C559.291992,496.733063 559.097839,502.457520 560.237671,507.902740 
	C560.723022,510.221130 563.998291,511.955475 566.338928,513.968140 
	C573.795898,517.107971 580.947144,520.174622 588.019348,523.414062 
	C589.390442,524.042114 590.452515,525.344604 591.657166,526.336060 
	C591.379333,526.648193 591.101562,526.960327 590.823730,527.272461 
	C575.091736,527.272461 559.359741,527.272461 543.074707,527.272461 
	C543.074707,525.176880 542.679565,522.502991 543.145813,519.988892 
	C544.811462,511.007721 542.114807,502.638184 539.871826,494.214722 
	C537.016479,483.491486 533.957031,472.822662 530.804932,461.392609 
	C527.023804,447.096527 523.423279,433.538177 520.185181,419.762787 
	C524.480408,419.545715 528.413269,419.545715 531.873108,419.545715 
	C529.275452,405.316437 526.789673,391.700012 524.642700,377.995026 
	C525.697571,376.267120 526.610352,374.684082 527.097961,372.979431 
	C530.427917,361.338715 533.668518,349.672455 537.319702,338.006775 
	C538.210327,338.015686 538.719116,338.032227 539.291382,338.445435 
	C539.565491,340.325104 539.789856,341.806366 539.984558,343.291473 
	C541.672485,356.162262 543.355164,369.033722 544.976196,382.349274 
	C545.509338,387.243683 546.105591,391.693787 546.694580,396.582458 
	C547.423340,402.023315 548.159363,407.025604 548.870239,412.457214 
	C551.072205,431.351898 553.237061,449.825073 555.556274,468.278900 
	C556.515869,475.914581 557.806213,483.508636 558.946167,491.121643 
z"/>
<path fill="#CED5DD" opacity="1.000000" stroke="none" 
	d="
M519.822754,419.979858 
	C523.423279,433.538177 527.023804,447.096527 530.645996,461.050232 
	C528.364319,464.577637 526.003296,467.669067 523.767517,470.848572 
	C514.263184,484.364655 504.788239,497.901398 495.334442,511.452850 
	C494.778625,512.249634 494.502808,513.241699 493.731873,514.445862 
	C490.962036,513.481079 488.556946,512.213318 486.100281,510.537048 
	C484.592072,502.401611 483.135437,494.674744 481.834045,486.615784 
	C491.670532,465.456146 501.374573,444.639069 510.981079,423.777100 
	C511.609467,422.412476 511.491394,420.704132 512.121338,419.218506 
	C514.955750,419.514130 517.389221,419.747009 519.822754,419.979858 
z"/>
<path fill="#1E1D4C" opacity="1.000000" stroke="none" 
	d="
M486.151855,510.945587 
	C488.556946,512.213318 490.962036,513.481079 493.704102,514.788940 
	C501.198151,517.837280 508.387177,520.773560 515.481995,523.922058 
	C516.716248,524.469788 517.553284,525.912659 518.573853,526.942017 
	C517.296021,527.583252 516.014465,528.786621 514.740845,528.778381 
	C502.652557,528.700256 490.565643,528.416321 478.164856,528.450134 
	C469.513031,528.174500 461.174622,527.640381 451.537140,527.023071 
	C452.272858,521.759949 453.088776,515.923157 454.742798,510.012390 
	C460.346313,509.996704 465.111755,510.055023 470.178650,510.419983 
	C475.704010,510.799622 480.927948,510.872589 486.151855,510.945587 
z"/>
<path fill="#6CA2AD" opacity="1.000000" stroke="none" 
	d="
M631.104004,390.770935 
	C624.758728,390.538940 618.803345,390.227966 612.401794,389.439667 
	C612.512329,385.877045 613.014038,382.780670 613.635559,379.708496 
	C615.765198,369.182281 617.936829,358.664551 620.092529,348.143555 
	C622.473511,348.083923 624.854553,348.024292 627.687927,347.974518 
	C629.726868,360.976074 631.360657,373.962494 632.820251,386.968445 
	C632.952271,388.145172 631.962585,389.447784 631.104004,390.770935 
z"/>
<path fill="#E5E4E4" opacity="1.000000" stroke="none" 
	d="
M627.892334,516.063599 
	C635.490723,518.492432 638.604126,517.680176 640.849121,512.326904 
	C645.801819,513.763916 650.593262,515.524902 655.377686,517.304688 
	C659.529968,518.849304 663.773438,520.203369 667.774658,522.073608 
	C669.424377,522.844666 670.546143,524.745056 671.908081,526.131714 
	C670.293335,527.084900 668.694458,528.831421 667.061157,528.864258 
	C655.269714,529.101440 643.471375,528.996582 631.675171,528.989990 
	C626.253479,528.986938 623.984497,526.302734 625.217468,521.014587 
	C625.610718,519.328430 626.744629,517.815002 627.892334,516.063599 
z"/>
<path fill="#212ACF" opacity="1.000000" stroke="none" 
	d="
M486.100281,510.537048 
	C480.927948,510.872589 475.704010,510.799622 470.187378,510.032288 
	C467.306396,502.228607 464.718140,495.119263 462.129883,488.009918 
	C452.629822,460.847748 443.131683,433.684906 433.626556,406.524506 
	C432.747192,404.011780 431.823730,401.514465 430.914459,398.208679 
	C431.163757,395.789032 431.246429,394.119934 431.704285,392.561005 
	C433.932556,384.973877 436.391296,377.452637 438.521362,369.838898 
	C441.177490,360.344788 443.592010,350.783020 446.502655,341.157104 
	C450.646423,340.350922 452.446167,342.047760 452.882080,345.709625 
	C453.054688,347.159760 453.648804,348.559692 454.043945,350.387268 
	C455.670380,358.202423 457.303925,365.612854 458.918945,373.445343 
	C461.986572,389.238312 465.072662,404.609161 468.159973,420.379395 
	C468.809967,424.031891 469.360992,427.308228 470.128143,430.533203 
	C471.678070,437.048737 473.345337,443.536346 474.960083,450.480865 
	C477.196930,462.933441 479.437897,474.940674 481.678833,486.947876 
	C483.135437,494.674744 484.592072,502.401611 486.100281,510.537048 
z"/>
<path fill="#2D46FE" opacity="1.000000" stroke="none" 
	d="
M446.110840,341.250488 
	C443.592010,350.783020 441.177490,360.344788 438.521362,369.838898 
	C436.391296,377.452637 433.932556,384.973877 431.704285,392.561005 
	C431.246429,394.119934 431.163757,395.789032 430.855225,397.843262 
	C428.875000,403.345886 426.278107,408.268280 425.149567,413.506989 
	C422.109802,427.617554 413.385620,437.104736 401.833160,444.788971 
	C393.547058,450.300568 385.553864,456.252472 377.151642,462.254700 
	C375.019867,455.667297 373.166412,448.833130 371.576691,441.455139 
	C375.241028,438.011078 378.641663,435.110840 382.356873,432.043884 
	C382.856262,431.277893 383.041107,430.678619 383.178528,430.186584 
	C383.131104,430.293762 383.347137,430.384796 383.621765,430.434937 
	C384.300659,430.080322 384.704926,429.675568 385.437775,429.168213 
	C393.250977,423.614014 399.612488,417.589935 397.098938,406.592163 
	C397.180481,405.080261 397.178406,403.975098 397.238434,402.413879 
	C397.462921,387.058014 397.625275,372.158264 398.235413,357.126038 
	C400.808716,356.871948 402.934174,356.750305 405.514832,356.726074 
	C410.786224,356.839813 415.605011,356.960266 420.417999,356.843811 
	C425.494415,356.721008 432.238159,358.236938 435.173859,355.603668 
	C438.180481,352.906738 437.455688,346.049805 438.785522,341.020569 
	C441.508148,341.101715 443.809509,341.176086 446.110840,341.250488 
z"/>
<path fill="#E3E3E3" opacity="1.000000" stroke="none" 
	d="
M375.635437,516.037659 
	C382.569641,518.346924 385.780029,517.436157 387.152252,512.434937 
	C390.154663,513.035828 393.138397,513.975830 396.073364,515.049011 
	C402.269653,517.314697 408.500336,519.507568 414.577057,522.062927 
	C415.993469,522.658508 416.851074,524.583008 417.965790,525.896057 
	C416.744293,526.925720 415.538361,528.827881 414.298828,528.849976 
	C401.817566,529.072876 389.330750,528.969788 376.845612,529.002747 
	C374.095306,529.010010 372.650360,527.681335 373.061798,525.032288 
	C373.530975,522.011230 371.154419,518.234192 375.635437,516.037659 
z"/>
<path fill="#323A78" opacity="1.000000" stroke="none" 
	d="
M461.950256,488.331116 
	C464.718140,495.119263 467.306396,502.228607 469.885925,509.725647 
	C465.111755,510.055023 460.346313,509.996704 455.088379,509.871033 
	C456.987488,502.753235 459.379028,495.702789 461.950256,488.331116 
z"/>
<path fill="#DCE2E8" opacity="1.000000" stroke="none" 
	d="
M468.158813,419.980011 
	C465.072662,404.609161 461.986572,389.238312 459.254456,373.268188 
	C460.002197,372.151154 460.601501,371.689026 460.759003,371.107300 
	C463.211823,362.047638 465.607452,352.972504 468.396851,343.913818 
	C474.142578,345.542480 479.430603,347.577087 484.907562,348.586212 
	C487.405304,349.046448 490.276062,347.482269 493.108521,347.153748 
	C496.755310,351.043213 500.271240,354.615204 504.443085,358.853607 
	C504.910034,351.022461 504.910126,351.045227 512.284058,351.016968 
	C513.741455,351.011383 515.197998,350.755707 516.654907,350.615326 
	C516.771484,349.970764 516.888123,349.326172 517.004700,348.681610 
	C510.472260,346.054321 503.939819,343.427032 497.264648,340.488220 
	C488.501465,330.243896 479.541595,320.578857 471.404968,310.264374 
	C467.382050,305.164673 464.876587,298.867889 461.684540,293.112732 
	C463.580200,291.084473 465.687866,289.214264 467.337097,287.002289 
	C477.905823,272.827271 489.942932,260.161346 505.328003,250.044174 
	C507.917358,249.966217 509.790100,249.987427 511.804718,250.434082 
	C514.411682,280.219269 516.876831,309.579071 519.285889,339.360718 
	C520.921204,352.549591 522.612488,365.316620 524.303833,378.083618 
	C526.789673,391.700012 529.275452,405.316437 531.873108,419.545715 
	C528.413269,419.545715 524.480408,419.545715 520.185181,419.762817 
	C517.389221,419.747009 514.955750,419.514130 511.678009,419.286072 
	C507.062927,419.300446 503.288025,419.203247 499.522186,419.345795 
	C494.507660,419.535583 489.500153,419.911987 483.989136,420.148254 
	C478.378693,420.052185 473.268768,420.016083 468.158813,419.980011 
z"/>
<path fill="#2129CE" opacity="1.000000" stroke="none" 
	d="
M265.033203,350.679138 
	C264.349030,353.583801 263.700073,356.497345 262.973663,359.391418 
	C261.212860,366.406769 257.020874,370.752533 248.812836,371.636078 
	C239.586945,371.348541 231.115417,370.936707 222.650452,370.418060 
	C215.908524,370.004944 209.174591,369.461456 201.996109,368.910980 
	C198.211990,369.364075 196.800766,368.060455 195.851959,364.614227 
	C192.646118,352.970123 195.306900,342.070587 199.370575,330.988586 
	C203.115555,328.350739 206.814148,326.182953 210.002731,323.425446 
	C212.721909,321.073883 214.854721,318.044312 217.569855,315.172424 
	C224.321198,312.277222 230.749603,309.524200 238.073090,306.387848 
	C235.490875,305.393341 233.892899,304.777863 231.747833,303.951721 
	C233.684998,300.019470 235.521027,296.292480 237.357071,292.565491 
	C236.932678,292.261780 236.508286,291.958069 236.083878,291.654358 
	C233.502213,293.366974 230.920029,295.078827 228.338974,296.792389 
	C223.285934,300.147125 218.233490,303.502747 212.871429,306.642059 
	C210.151794,306.969147 207.741547,307.512146 205.331299,308.055115 
	C206.829926,291.168701 212.907990,275.830139 221.412415,261.382263 
	C222.328033,259.826721 224.684326,259.119202 227.197052,258.042480 
	C232.053665,258.008179 236.085571,257.949677 240.117462,257.891174 
	C242.063812,258.023285 244.010178,258.155365 245.576431,258.261627 
	C247.770050,267.829315 249.888962,277.071259 252.185760,287.044983 
	C254.294434,293.939270 256.225220,300.101715 258.156036,306.264191 
	C259.959198,306.811584 261.758911,307.819824 263.566040,307.833252 
	C277.650970,307.937805 291.090790,304.407379 304.410675,300.272095 
	C305.964233,299.789764 307.585876,299.526855 309.596405,299.620697 
	C311.456177,303.163330 312.895538,306.247528 314.334869,309.331696 
	C314.972015,311.912506 315.582428,314.500305 316.251343,317.072845 
	C318.178467,324.484344 318.187744,324.481934 310.982574,328.034546 
	C307.893921,329.506805 305.433197,330.696350 302.593262,331.915100 
	C290.026245,335.400787 277.838379,338.857208 265.033203,342.488708 
	C265.033203,344.727264 265.033203,347.703186 265.033203,350.679138 
z"/>
<path fill="#2C45FE" opacity="1.000000" stroke="none" 
	d="
M343.466125,418.040466 
	C337.343048,417.349976 331.689819,416.662018 325.613953,415.971252 
	C317.770691,415.294067 310.350098,414.619629 302.020050,413.976257 
	C298.737122,414.015045 296.363617,414.022766 293.990112,414.030487 
	C290.317383,405.360474 286.644623,396.690460 283.077820,387.260559 
	C283.754303,383.756897 284.523621,381.036224 284.845398,378.263580 
	C285.254456,374.738556 286.964691,373.513763 290.453552,373.824890 
	C293.689941,374.113495 296.972321,373.886444 300.411102,373.886444 
	C301.000580,364.281403 301.555176,355.245178 302.560242,346.182678 
	C306.344696,346.081543 309.678650,346.006683 313.012573,345.931854 
	C324.660614,345.992920 336.310883,346.200714 347.955383,346.025269 
	C351.431793,345.972900 352.777496,347.203064 353.947266,350.369080 
	C357.113342,358.937988 360.785431,367.319946 364.502106,376.424957 
	C366.091766,381.086243 367.436127,385.098602 368.806335,389.530212 
	C369.721649,395.626617 370.349976,401.360992 371.576599,406.964355 
	C372.727203,412.220490 371.850250,415.945587 366.088531,417.320496 
	C358.704346,417.561310 351.320160,417.802124 343.466125,418.040466 
z"/>
<path fill="#FE9B23" opacity="1.000000" stroke="none" 
	d="
M438.364197,341.013763 
	C437.455688,346.049805 438.180481,352.906738 435.173859,355.603668 
	C432.238159,358.236938 425.494415,356.721008 420.417999,356.843811 
	C415.605011,356.960266 410.786224,356.839813 405.445801,356.373901 
	C403.941406,352.291718 402.961212,348.659149 402.369263,344.952576 
	C406.641357,344.909210 407.237885,342.873108 406.679504,339.429993 
	C405.369751,331.353485 404.382294,323.224762 403.652130,315.016968 
	C410.252502,314.407990 416.465118,313.899170 423.733368,313.303894 
	C421.534271,311.255951 420.259460,310.068787 418.475250,308.407196 
	C421.376770,305.367584 424.124969,302.488617 426.873138,299.609650 
	C424.639435,298.793640 422.800385,298.902954 421.111053,299.463501 
	C414.694305,301.592682 408.325928,303.867737 401.505188,306.013123 
	C393.833862,305.951477 386.596863,305.964966 379.359863,305.978485 
	C384.641022,295.287720 389.922180,284.596985 395.344421,273.620636 
	C389.489960,271.919708 387.511810,266.498871 385.884094,260.843842 
	C383.782562,253.542694 387.588867,247.957642 395.214783,248.168335 
	C401.812225,248.350601 408.380432,249.591690 415.729736,250.588898 
	C421.724609,250.166214 423.408142,253.102921 424.571289,257.718353 
	C431.474762,285.112183 437.964478,312.551300 438.364197,341.013763 
z"/>
<path fill="#B0B9C4" opacity="1.000000" stroke="none" 
	d="
M378.990601,305.982422 
	C386.596863,305.964966 393.833862,305.951477 401.515991,306.424408 
	C402.395569,309.646301 402.829987,312.381714 403.264404,315.117157 
	C404.382294,323.224762 405.369751,331.353485 406.679504,339.429993 
	C407.237885,342.873108 406.641357,344.909210 401.919006,344.904327 
	C398.055237,345.028076 395.029846,345.126068 391.558868,345.145020 
	C383.750183,344.046326 376.387085,343.026733 369.024017,342.007111 
	C355.321014,339.182190 351.332123,328.741516 348.924896,316.799530 
	C346.608429,305.307709 343.779846,293.919800 341.375732,282.444489 
	C340.807251,279.730865 341.037231,276.849976 341.387390,273.654724 
	C347.387177,292.046204 358.891571,303.833374 378.990601,305.982422 
z"/>
<path fill="#E87818" opacity="1.000000" stroke="none" 
	d="
M461.415527,292.919006 
	C464.876587,298.867889 467.382050,305.164673 471.404968,310.264374 
	C479.541595,320.578857 488.501465,330.243896 497.010132,340.746094 
	C495.591492,343.155701 494.284576,344.996002 492.977661,346.836304 
	C490.276062,347.482269 487.405304,349.046448 484.907562,348.586212 
	C479.430603,347.577087 474.142578,345.542480 468.170898,343.684814 
	C466.357178,342.969879 465.149963,342.496735 463.753723,341.745728 
	C459.242279,339.465820 456.536163,336.478363 455.754333,331.440521 
	C455.074738,327.061676 453.509888,322.782440 452.007263,318.576691 
	C448.549347,308.897949 444.120667,299.493469 441.517731,289.600922 
	C438.550049,278.322235 437.137299,266.634369 435.048767,255.124329 
	C442.833710,266.093292 450.633301,277.051941 458.386200,288.043518 
	C459.426941,289.519012 460.232239,291.160583 461.415527,292.919006 
z"/>
<path fill="#DA2B26" opacity="1.000000" stroke="none" 
	d="
M204.980927,308.226196 
	C207.741547,307.512146 210.151794,306.969147 212.924164,306.938080 
	C214.606506,310.071564 215.926712,312.693115 217.246918,315.314667 
	C214.854721,318.044312 212.721909,321.073883 210.002731,323.425446 
	C206.814148,326.182953 203.115555,328.350739 199.029007,331.068512 
	C189.469986,335.988007 180.334488,340.005371 169.763794,339.735474 
	C166.230804,329.679138 163.265579,319.798157 159.527115,310.218964 
	C153.579727,294.979767 148.211456,279.650726 147.102890,263.161957 
	C148.345871,264.356079 150.052200,265.325562 150.757568,266.780365 
	C155.820053,277.221924 160.654984,287.773499 165.608780,298.268158 
	C172.317032,312.479523 175.942017,314.530640 191.217316,312.027771 
	C195.764587,311.282684 200.163589,309.632660 204.980927,308.226196 
z"/>
<path fill="#36373B" opacity="1.000000" stroke="none" 
	d="
M519.341980,338.938843 
	C516.876831,309.579071 514.411682,280.219269 512.254150,250.412460 
	C514.751709,249.578979 516.941772,249.192520 519.131775,248.806061 
	C520.043884,249.805023 521.699768,250.761597 521.759460,251.809128 
	C523.274231,278.386963 532.082703,303.006439 542.036072,328.056274 
	C543.576233,332.587341 545.389771,336.617523 539.227905,338.048798 
	C538.719116,338.032227 538.210327,338.015686 536.873169,338.003479 
	C530.477173,338.318207 524.909546,338.628510 519.341980,338.938843 
z"/>
<path fill="#FE3668" opacity="1.000000" stroke="none" 
	d="
M228.782852,249.591248 
	C218.668167,248.689789 214.799698,243.780823 216.724884,233.915695 
	C217.451080,230.194473 218.722107,226.579575 219.767853,222.833481 
	C212.699005,216.964279 209.733246,209.382111 212.571350,204.168274 
	C215.531296,198.730606 224.520172,196.011520 232.730667,198.070190 
	C237.190308,199.188400 239.763626,205.668121 239.308762,212.906403 
	C244.625656,216.040207 249.423767,218.649033 253.911057,221.713043 
	C254.728821,222.271439 254.277939,224.687790 253.832657,226.558289 
	C247.616074,228.478302 241.330261,228.834824 238.148331,235.100311 
	C237.878342,235.631943 236.095963,235.290482 235.074646,235.569031 
	C233.330780,236.044617 230.886185,236.206116 230.116379,237.394089 
	C229.265366,238.707352 229.734024,241.069427 230.074020,242.891495 
	C230.293777,244.069199 231.314545,245.097443 232.363403,246.833191 
	C231.126831,247.785721 229.954849,248.688477 228.782852,249.591248 
z"/>
<path fill="#DDE0E3" opacity="1.000000" stroke="none" 
	d="
M435.028137,254.719055 
	C437.137299,266.634369 438.550049,278.322235 441.517731,289.600922 
	C444.120667,299.493469 448.549347,308.897949 452.007263,318.576691 
	C453.509888,322.782440 455.074738,327.061676 455.754333,331.440521 
	C456.536163,336.478363 459.242279,339.465820 463.451172,341.896423 
	C460.242035,344.877441 457.146515,347.429962 454.051025,349.982483 
	C453.648804,348.559692 453.054688,347.159760 452.882080,345.709625 
	C452.446167,342.047760 450.646423,340.350922 446.502625,341.157104 
	C443.809509,341.176086 441.508148,341.101715 438.785522,341.020569 
	C437.964478,312.551300 431.474762,285.112183 424.571289,257.718353 
	C423.408142,253.102921 421.724609,250.166214 416.175262,250.606415 
	C416.076965,249.728806 416.301361,249.057800 417.160522,248.353699 
	C422.151825,248.855377 426.508423,249.390152 430.864990,249.924927 
	C433.923523,249.804337 435.262390,251.306900 435.028137,254.719055 
z"/>
<path fill="#DDDDE3" opacity="1.000000" stroke="none" 
	d="
M147.065079,262.730682 
	C148.211456,279.650726 153.579727,294.979767 159.527115,310.218964 
	C163.265579,319.798157 166.230804,329.679138 169.767426,340.155396 
	C170.347260,343.542572 169.550964,345.282074 166.521942,345.243591 
	C162.985153,345.123383 159.448364,345.003204 155.464355,344.958069 
	C153.947922,344.975037 152.878708,344.916992 151.407227,344.845581 
	C150.319962,316.667694 144.377335,289.385773 137.172943,262.313416 
	C136.704422,260.552734 136.401367,258.748077 136.433731,256.633331 
	C138.921005,256.539062 140.995865,256.775360 143.070740,257.011658 
	C147.659744,256.327362 146.993423,259.575317 147.065079,262.730682 
z"/>
<path fill="#F1CF59" opacity="1.000000" stroke="none" 
	d="
M301.910034,264.077881 
	C301.417542,256.946930 303.564301,250.996933 308.190277,245.293228 
	C310.897217,241.955643 312.293121,236.984680 312.825989,232.573044 
	C313.920563,223.510269 317.649200,217.937927 325.701752,215.606537 
	C333.726532,213.283188 340.920929,215.998611 345.829498,223.719330 
	C345.437134,224.448761 345.217957,224.727707 344.697876,225.152725 
	C339.431030,230.099075 334.055603,233.860825 326.709106,234.152435 
	C323.139740,234.294128 321.303101,239.173569 324.096710,241.101608 
	C327.264801,243.288086 327.035004,245.944931 327.027679,248.878616 
	C327.018555,252.524323 326.955048,256.169891 326.915039,259.815521 
	C326.255676,259.826965 325.440826,260.097473 324.961029,259.809570 
	C320.339233,257.036499 316.932007,258.684204 314.020172,262.589813 
	C311.072296,266.543732 306.765228,264.712250 302.485535,264.828125 
	C301.990082,264.562225 301.910034,264.077881 301.910034,264.077881 
z"/>
<path fill="#323A78" opacity="1.000000" stroke="none" 
	d="
M553.978394,334.313416 
	C559.351929,337.630676 564.776245,340.869598 570.074463,344.303009 
	C572.247070,345.710938 573.388367,344.882843 574.698608,342.956482 
	C574.981934,342.881866 575.008057,343.230377 575.005737,343.679260 
	C575.004089,350.758362 575.004700,357.388611 574.964966,364.471252 
	C574.930786,366.405182 574.747620,367.917358 574.981201,369.362122 
	C575.523315,372.716400 574.215454,374.294586 570.401733,374.126190 
	C566.451050,374.086945 562.937439,374.118286 558.939758,374.067749 
	C554.821350,374.006287 551.187012,374.026794 547.103149,373.927063 
	C546.347656,372.928101 545.653992,371.981598 545.794006,371.180908 
	C547.822876,359.580200 549.934814,347.993530 552.140503,336.425201 
	C552.291504,335.633240 553.344727,335.013336 553.978394,334.313416 
z"/>
<path fill="#1E1D4A" opacity="1.000000" stroke="none" 
	d="
M418.988037,238.999969 
	C416.301819,232.599838 413.484009,226.249741 411.018188,219.765793 
	C410.368500,218.057388 410.195953,215.696823 410.842316,214.040894 
	C415.908691,201.061020 434.242340,196.683762 444.899078,205.757050 
	C449.420746,209.606842 450.261932,216.101654 445.922119,219.922943 
	C439.415588,219.414688 433.961304,219.451843 432.215149,226.690842 
	C431.017822,226.123611 430.441681,225.876663 429.889496,225.584442 
	C427.856812,224.508606 425.832062,223.417801 423.804321,222.332642 
	C423.218994,224.573761 422.569153,226.800888 422.079102,229.062637 
	C421.873352,230.012131 422.254974,231.124908 421.936371,232.006989 
	C421.078125,234.382965 419.986816,236.674759 418.988037,238.999969 
z"/>
<path fill="#F79A1D" opacity="1.000000" stroke="none" 
	d="
M143.063171,256.605011 
	C140.995865,256.775360 138.921005,256.539062 136.464905,256.238342 
	C134.275696,255.776230 132.467697,255.378586 130.250824,254.934692 
	C130.576202,251.357849 131.310501,247.827240 132.105804,243.944458 
	C135.782486,242.672119 136.450867,240.908783 134.771820,237.396988 
	C133.885162,235.542496 134.603973,232.920425 134.597931,230.644928 
	C136.482986,230.784119 138.390320,231.163086 140.246445,230.990753 
	C141.892273,230.837967 143.661606,230.369644 145.060501,229.520294 
	C148.810425,227.243454 152.390945,224.687637 156.363052,222.175323 
	C159.540466,229.879593 160.193436,237.859955 158.847473,246.001358 
	C157.549637,253.851746 154.538864,255.577133 147.181137,252.788086 
	C145.961090,252.325623 144.755997,251.823730 143.055618,251.145142 
	C143.055618,253.073822 143.055618,254.636093 143.063171,256.605011 
z"/>
<path fill="#BDBCBB" opacity="1.000000" stroke="none" 
	d="
M535.831299,231.792664 
	C535.131958,235.942749 535.100403,240.401123 533.398193,244.088196 
	C532.735474,245.523651 528.291931,245.657776 525.598877,245.564926 
	C523.604431,245.496155 521.655823,244.102142 519.191650,242.789886 
	C517.706482,235.611282 516.716492,228.941284 515.726501,222.271286 
	C515.101807,222.125549 514.477173,221.979828 513.852478,221.834091 
	C512.941528,223.788086 510.940369,226.009247 511.340485,227.641937 
	C512.247681,231.343781 510.442200,233.192535 508.128754,235.148209 
	C501.778870,229.510178 500.295471,221.408508 504.087921,213.079636 
	C506.760925,207.209366 514.988464,203.739899 522.895325,205.149750 
	C524.509827,205.437622 526.116882,205.776398 527.739136,206.009903 
	C533.017517,206.769745 534.117249,208.295334 532.526001,213.698105 
	C529.633606,214.351883 527.093994,214.360779 524.758606,215.055710 
	C521.067932,216.153915 518.527039,218.934021 519.282532,222.799210 
	C521.613159,234.723358 521.509460,238.075058 534.428528,232.294403 
	C534.880432,232.092194 535.363037,231.958359 535.831299,231.792664 
z"/>
<path fill="#BC793E" opacity="1.000000" stroke="none" 
	d="
M228.666977,250.029266 
	C229.954849,248.688477 231.126831,247.785721 232.363403,246.833191 
	C231.314545,245.097443 230.293777,244.069199 230.074020,242.891495 
	C229.734024,241.069427 229.265366,238.707352 230.116379,237.394089 
	C230.886185,236.206116 233.330780,236.044617 235.074646,235.569031 
	C236.095963,235.290482 237.878342,235.631943 238.148331,235.100311 
	C241.330261,228.834824 247.616074,228.478302 253.650558,226.801804 
	C257.677032,234.612335 257.729950,242.781143 255.735092,251.011307 
	C254.260681,257.094147 251.464554,258.367889 245.411865,256.150787 
	C243.858612,255.581818 242.318619,254.976654 240.429581,254.257584 
	C240.295685,255.364319 240.186203,256.269379 240.097076,257.532806 
	C236.085571,257.949677 232.053665,258.008179 227.576324,257.979553 
	C227.604294,255.417419 228.077698,252.942352 228.666977,250.029266 
z"/>
<path fill="#D4A981" opacity="1.000000" stroke="none" 
	d="
M418.936340,239.378693 
	C419.986816,236.674759 421.078125,234.382965 421.936371,232.006989 
	C422.254974,231.124908 421.873352,230.012131 422.079102,229.062637 
	C422.569153,226.800888 423.218994,224.573761 423.804321,222.332642 
	C425.832062,223.417801 427.856812,224.508606 429.889496,225.584442 
	C430.441681,225.876663 431.017822,226.123611 432.215149,226.690842 
	C433.961304,219.451843 439.415588,219.414688 445.532654,219.989212 
	C445.987213,226.339432 446.772400,232.689331 445.857452,238.783981 
	C444.560944,247.420654 442.113678,248.298584 433.860107,244.940521 
	C432.966644,244.577011 432.042664,244.288528 430.128510,243.608383 
	C430.418579,245.936920 430.620697,247.559250 430.843903,249.553253 
	C426.508423,249.390152 422.151825,248.855377 417.444336,248.139526 
	C417.690460,245.224777 418.287567,242.491089 418.936340,239.378693 
z"/>
<path fill="#FD9C25" opacity="1.000000" stroke="none" 
	d="
M369.002319,342.429779 
	C376.387085,343.026733 383.750183,344.046326 391.557129,345.522308 
	C390.995819,349.640991 389.990601,353.303253 388.714264,357.184357 
	C387.104156,360.248535 385.937317,363.192596 384.378204,365.911713 
	C382.793152,368.676086 380.821503,371.218842 378.691406,373.618774 
	C374.618744,373.220764 370.873840,373.062622 367.128967,372.904419 
	C367.746185,362.887085 368.363403,352.869781 369.002319,342.429779 
z"/>
<path fill="#D8AB7F" opacity="1.000000" stroke="none" 
	d="
M327.280518,259.925507 
	C326.955048,256.169891 327.018555,252.524323 327.027679,248.878616 
	C327.035004,245.944931 327.264801,243.288086 324.096710,241.101608 
	C321.303101,239.173569 323.139740,234.294128 326.709106,234.152435 
	C334.055603,233.860825 339.431030,230.099075 344.852417,225.489227 
	C349.208099,234.066177 348.900360,242.823868 346.904510,251.474487 
	C345.590424,257.170258 343.051056,258.005310 337.671906,255.884064 
	C335.767212,255.132980 333.798950,254.543106 331.464142,253.744308 
	C331.703735,256.685822 331.875397,258.793182 332.047058,260.900574 
	C330.580017,260.612213 329.113007,260.323853 327.280518,259.925507 
z"/>
<path fill="#242AA3" opacity="1.000000" stroke="none" 
	d="
M258.528076,306.171875 
	C256.225220,300.101715 254.294434,293.939270 252.212708,287.449951 
	C260.939362,287.477386 268.708435,283.935028 276.431885,280.212128 
	C278.033813,279.439941 279.686798,278.773682 281.684448,278.534119 
	C283.369080,281.702240 284.685547,284.394867 286.002014,287.087494 
	C285.461121,288.754425 285.416718,290.947266 284.298676,292.002899 
	C277.062256,298.835266 268.672577,303.745667 258.528076,306.171875 
z"/>
<path fill="#C7CDD6" opacity="1.000000" stroke="none" 
	d="
M553.847534,334.030487 
	C553.344727,335.013336 552.291504,335.633240 552.140503,336.425201 
	C549.934814,347.993530 547.822876,359.580200 545.794006,371.180908 
	C545.653992,371.981598 546.347656,372.928101 547.015625,374.320038 
	C546.598267,377.190491 545.818787,379.547760 545.039368,381.904999 
	C543.355164,369.033722 541.672485,356.162262 539.984558,343.291473 
	C539.789856,341.806366 539.565491,340.325104 539.291382,338.445435 
	C545.389771,336.617523 543.576233,332.587341 542.242004,328.361450 
	C546.049988,329.916748 549.883362,331.832153 553.847534,334.030487 
z"/>
<path fill="#9A7A5F" opacity="1.000000" stroke="none" 
	d="
M314.787476,309.276367 
	C312.895538,306.247528 311.456177,303.163330 309.966034,299.747589 
	C311.397034,297.791931 313.037262,296.282623 314.319000,294.513611 
	C315.795502,292.475800 316.955353,290.208557 318.252716,288.040985 
	C318.648499,288.173157 319.044281,288.305359 319.440063,288.437561 
	C319.780426,290.252563 320.120758,292.067535 320.639282,294.832489 
	C325.315033,292.727692 329.587769,290.804321 333.813232,288.902191 
	C338.394440,296.645416 329.217865,306.419312 314.787476,309.276367 
z"/>
<path fill="#EECD60" opacity="1.000000" stroke="none" 
	d="
M332.378571,261.070984 
	C331.875397,258.793182 331.703735,256.685822 331.464142,253.744308 
	C333.798950,254.543106 335.767212,255.132980 337.671906,255.884064 
	C343.051056,258.005310 345.590424,257.170258 346.904510,251.474487 
	C348.900360,242.823868 349.208099,234.066177 345.153320,225.343155 
	C345.217957,224.727707 345.437134,224.448761 345.903748,224.058105 
	C348.083313,231.228653 350.299957,238.451447 351.839630,245.815765 
	C352.746521,250.153549 352.854645,254.720795 352.775146,259.175079 
	C352.737396,261.291107 351.807831,264.883301 350.607361,265.193298 
	C347.587494,265.973083 344.076202,265.734589 340.965424,265.019287 
	C338.076813,264.355042 335.451416,262.546265 332.378571,261.070984 
z"/>
<path fill="#B28D6A" opacity="1.000000" stroke="none" 
	d="
M535.845398,231.371552 
	C535.363037,231.958359 534.880432,232.092194 534.428528,232.294403 
	C521.509460,238.075058 521.613159,234.723358 519.282532,222.799210 
	C518.527039,218.934021 521.067932,216.153915 524.758606,215.055710 
	C527.093994,214.360779 529.633606,214.351883 532.489502,214.090439 
	C533.884766,219.747192 534.872131,225.348816 535.845398,231.371552 
z"/>
<path fill="#B08D6C" opacity="1.000000" stroke="none" 
	d="
M508.093140,235.543930 
	C510.442200,233.192535 512.247681,231.343781 511.340485,227.641937 
	C510.940369,226.009247 512.941528,223.788086 513.852478,221.834091 
	C514.477173,221.979828 515.101807,222.125549 515.726501,222.271286 
	C516.716492,228.941284 517.706482,235.611282 518.854370,242.642227 
	C519.049500,244.661591 519.086792,246.319992 519.127930,248.392242 
	C516.941772,249.192520 514.751709,249.578979 512.112305,249.987030 
	C509.790100,249.987427 507.917358,249.966217 505.649628,249.886658 
	C506.188934,245.198776 507.123230,240.569214 508.093140,235.543930 
z"/>
<path fill="#AC8869" opacity="1.000000" stroke="none" 
	d="
M589.073425,340.878540 
	C593.837219,343.250702 598.601013,345.622894 603.364746,347.995087 
	C603.187866,348.580811 603.010925,349.166565 602.834045,349.752319 
	C599.062439,349.752319 595.290894,349.752319 591.278381,349.752319 
	C591.074951,352.128540 590.928955,353.833832 590.642151,357.183319 
	C587.477600,353.940002 585.167419,351.572296 582.468506,348.693176 
	C579.722595,346.531311 577.365295,344.880859 575.008057,343.230377 
	C575.008057,343.230377 574.981934,342.881866 574.978271,342.706665 
	C576.308899,340.082275 577.643127,337.633118 579.221558,334.880371 
	C581.424438,336.001404 583.383240,337.425995 585.829956,339.227417 
	C587.236389,340.028992 588.154907,340.453766 589.073425,340.878540 
z"/>
<path fill="#9A7A5F" opacity="1.000000" stroke="none" 
	d="
M286.308563,286.903931 
	C284.685547,284.394867 283.369080,281.702240 282.034607,278.671387 
	C286.695679,274.364990 291.306244,270.311035 296.095673,266.480743 
	C297.529999,265.333679 299.463806,264.811188 301.539398,264.040222 
	C301.910034,264.077881 301.990082,264.562225 302.041931,264.802673 
	C300.551422,268.596161 299.009064,272.149200 297.342896,275.987488 
	C299.497192,276.766479 300.958588,277.294922 302.419983,277.823364 
	C302.556458,278.234772 302.692902,278.646210 302.829346,279.057648 
	C297.424622,281.611877 292.019867,284.166138 286.308563,286.903931 
z"/>
<path fill="#D5AA82" opacity="1.000000" stroke="none" 
	d="
M367.050659,373.260193 
	C370.873840,373.062622 374.618744,373.220764 378.529358,374.000793 
	C379.186279,380.262390 379.677429,385.902191 380.235443,392.309540 
	C378.742798,391.337189 377.350372,390.673340 376.266632,389.674561 
	C373.858276,387.455139 371.441895,387.107605 368.780518,389.110962 
	C367.436127,385.098602 366.091766,381.086243 364.732910,376.701782 
	C365.469757,375.425079 366.221069,374.520508 367.050659,373.260193 
z"/>
<path fill="#B0B9C4" opacity="1.000000" stroke="none" 
	d="
M312.955505,345.533203 
	C309.678650,346.006683 306.344696,346.081543 302.528564,345.741089 
	C302.355042,340.845825 302.663727,336.365845 302.972443,331.885864 
	C305.433197,330.696350 307.893921,329.506805 310.693481,328.261475 
	C311.654358,333.848633 312.276398,339.491608 312.955505,345.533203 
z"/>
<path fill="#89C3CB" opacity="1.000000" stroke="none" 
	d="
M570.838806,374.196777 
	C574.215454,374.294586 575.523315,372.716400 574.981201,369.362122 
	C574.747620,367.917358 574.930786,366.405182 575.414307,364.455292 
	C578.597900,363.909027 581.291748,363.831116 583.985596,363.753204 
	C593.734680,363.753204 603.483765,363.753204 613.862366,363.753204 
	C613.495728,358.677521 613.144958,353.821594 612.829102,348.511047 
	C614.973328,348.047516 617.082642,348.038605 619.642212,348.086639 
	C617.936829,358.664551 615.765198,369.182281 613.635559,379.708496 
	C613.014038,382.780670 612.512329,385.877045 611.933655,389.367157 
	C599.929260,389.891632 587.946899,390.011322 575.094849,390.170593 
	C573.182007,388.640320 571.470947,387.165222 571.232117,385.481293 
	C570.706482,381.775726 570.924377,377.964752 570.838806,374.196777 
z"/>
<path fill="#2B316B" opacity="1.000000" stroke="none" 
	d="
M583.987061,363.365540 
	C581.291748,363.831116 578.597900,363.909027 575.454712,364.002869 
	C575.004700,357.388611 575.004089,350.758362 575.005737,343.679260 
	C577.365295,344.880859 579.722595,346.531311 582.202209,348.503601 
	C582.168335,350.566589 581.677673,352.357819 581.929138,354.037964 
	C582.380432,357.053131 583.277649,360.001526 583.987061,363.365540 
z"/>
<path fill="#575C8F" opacity="1.000000" stroke="none" 
	d="
M589.373779,340.606262 
	C588.154907,340.453766 587.236389,340.028992 586.140625,339.356812 
	C591.203979,336.532349 596.444458,333.955322 602.544434,330.955688 
	C602.544434,334.655945 602.544434,336.987640 602.544434,339.716919 
	C598.175293,339.926392 593.924683,340.130157 589.373779,340.606262 
z"/>
<path fill="#FB4236" opacity="1.000000" stroke="none" 
	d="
M202.437119,368.975861 
	C209.174591,369.461456 215.908524,370.004944 222.650452,370.418060 
	C231.115417,370.936707 239.586945,371.348541 248.520630,371.851196 
	C246.700455,381.267212 244.400085,390.634827 242.142853,400.012817 
	C241.685867,401.911499 241.391891,403.849426 240.737350,406.433167 
	C239.940063,408.675446 239.466675,410.267578 238.910187,411.830078 
	C234.850067,423.229950 231.555908,435.019867 222.656570,443.973358 
	C222.176590,444.139557 221.696625,444.305756 221.115295,444.713501 
	C219.233444,445.665771 217.452942,446.376526 215.311890,447.042023 
	C215.715500,445.049835 216.466599,443.097656 217.246063,441.156891 
	C220.322723,433.496368 223.744080,425.953247 226.390274,418.147125 
	C228.750870,411.183533 226.875290,404.736298 221.880798,399.312561 
	C215.037704,391.881287 208.145767,384.494965 201.342148,376.428162 
	C201.752075,373.503235 202.094604,371.239563 202.437119,368.975861 
z"/>
<path fill="#C3CCD5" opacity="1.000000" stroke="none" 
	d="
M302.593262,331.915100 
	C302.663727,336.365845 302.355042,340.845825 302.078064,345.767395 
	C301.555176,355.245178 301.000580,364.281403 300.411102,373.886444 
	C296.972321,373.886444 293.689941,374.113495 290.453552,373.824890 
	C286.964691,373.513763 285.254456,374.738556 284.845398,378.263580 
	C284.523621,381.036224 283.754303,383.756897 283.050659,386.896545 
	C277.123657,375.262268 271.329773,363.232117 265.284546,350.940552 
	C265.033203,347.703186 265.033203,344.727264 265.033203,342.488708 
	C277.838379,338.857208 290.026245,335.400787 302.593262,331.915100 
z"/>
<path fill="#C6CBD2" opacity="1.000000" stroke="none" 
	d="
M223.074936,443.980164 
	C231.555908,435.019867 234.850067,423.229950 238.910187,411.830078 
	C239.466675,410.267578 239.940063,408.675446 240.733673,406.822083 
	C246.057632,415.407410 251.099854,424.267700 256.272491,433.461029 
	C252.534805,435.073059 248.688141,436.421936 244.793991,437.615814 
	C237.708618,439.788086 230.595078,441.868347 223.074936,443.980164 
z"/>
<path fill="#3135CB" opacity="1.000000" stroke="none" 
	d="
M294.003082,414.391266 
	C296.363617,414.022766 298.737122,414.015045 301.553955,414.019226 
	C301.252533,417.193726 303.621124,421.117096 299.330078,423.566833 
	C297.322998,420.673370 295.669525,417.712708 294.003082,414.391266 
z"/>
<path fill="#C2C9D3" opacity="1.000000" stroke="none" 
	d="
M201.996109,368.910980 
	C202.094604,371.239563 201.752075,373.503235 201.213959,376.147827 
	C189.634399,366.297272 178.250427,356.065826 166.694183,345.539001 
	C169.550964,345.282074 170.347260,343.542572 169.988297,340.466125 
	C180.334488,340.005371 189.469986,335.988007 198.761414,331.282776 
	C195.306900,342.070587 192.646118,352.970123 195.851959,364.614227 
	C196.800766,368.060455 198.211990,369.364075 201.996109,368.910980 
z"/>
<path fill="#FB4236" opacity="1.000000" stroke="none" 
	d="
M214.718704,446.923309 
	C214.783783,447.232117 214.549118,447.510223 214.022903,447.827515 
	C213.960556,447.542023 214.189758,447.217346 214.718704,446.923309 
z"/>
<path fill="#C3CCD6" opacity="1.000000" stroke="none" 
	d="
M368.806335,389.530212 
	C371.441895,387.107605 373.858276,387.455139 376.266632,389.674561 
	C377.350372,390.673340 378.742798,391.337189 380.235443,392.309540 
	C379.677429,385.902191 379.186279,380.262390 378.857117,374.240601 
	C380.821503,371.218842 382.793152,368.676086 384.378204,365.911713 
	C385.937317,363.192596 387.104156,360.248535 389.158661,357.247681 
	C392.512024,357.147614 395.149841,357.203064 397.787659,357.258484 
	C397.625275,372.158264 397.462921,387.058014 396.946655,402.613831 
	C395.389893,405.510223 394.186981,407.750519 392.991638,409.996033 
	C392.999176,410.001221 392.990417,409.987091 392.682495,410.141724 
	C390.377716,413.922394 388.175446,417.453979 386.450043,421.204926 
	C385.107666,424.123169 384.359436,427.314728 383.347137,430.384796 
	C383.347137,430.384796 383.131104,430.293762 382.867432,430.318848 
	C382.416626,430.966156 382.229462,431.588379 382.042297,432.210602 
	C378.641663,435.110840 375.241028,438.011078 371.565796,441.088379 
	C369.533691,433.543518 367.776154,425.821564 366.053589,417.710052 
	C371.850250,415.945587 372.727203,412.220490 371.576599,406.964355 
	C370.349976,401.360992 369.721649,395.626617 368.806335,389.530212 
z"/>
<path fill="#FCFCFC" opacity="1.000000" stroke="none" 
	d="
M570.401733,374.126190 
	C570.924377,377.964752 570.706482,381.775726 571.232117,385.481293 
	C571.470947,387.165222 573.182007,388.640320 574.635803,390.254211 
	C576.442078,419.016602 570.373596,446.724884 563.665100,474.345276 
	C562.337158,479.813019 560.962402,485.269379 559.277710,490.926331 
	C557.806213,483.508636 556.515869,475.914581 555.556274,468.278900 
	C553.237061,449.825073 551.072205,431.351898 549.157898,412.220764 
	C551.101318,406.884644 552.731934,402.214264 554.677979,397.739044 
	C556.533264,398.278229 558.073242,398.622253 560.087830,399.072296 
	C555.933411,387.649231 555.933655,387.649292 558.940125,376.066345 
	C559.105713,375.428558 559.262878,374.788605 559.423950,374.149658 
	C562.937439,374.118286 566.451050,374.086945 570.401733,374.126190 
z"/>
<path fill="#333977" opacity="1.000000" stroke="none" 
	d="
M519.285889,339.360718 
	C524.909546,338.628510 530.477173,338.318207 536.491333,338.011169 
	C533.668518,349.672455 530.427917,361.338715 527.097961,372.979431 
	C526.610352,374.684082 525.697571,376.267120 524.642639,377.995026 
	C522.612488,365.316620 520.921204,352.549591 519.285889,339.360718 
z"/>
<path fill="#BA7B41" opacity="1.000000" stroke="none" 
	d="
M558.939819,374.067719 
	C559.262878,374.788605 559.105713,375.428558 558.940125,376.066345 
	C555.933655,387.649292 555.933411,387.649231 560.087830,399.072296 
	C558.073242,398.622253 556.533264,398.278229 554.528320,397.418701 
	C551.913086,393.706665 549.306152,394.938385 546.701843,396.143921 
	C546.105591,391.693787 545.509338,387.243683 544.976196,382.349274 
	C545.818787,379.547760 546.598267,377.190491 547.465210,374.440247 
	C551.187012,374.026794 554.821350,374.006287 558.939819,374.067719 
z"/>
<path fill="#CBD2DC" opacity="1.000000" stroke="none" 
	d="
M546.694580,396.582458 
	C549.306152,394.938385 551.913086,393.706665 554.213013,397.223572 
	C552.731934,402.214264 551.101318,406.884644 549.183105,411.791443 
	C548.159363,407.025604 547.423340,402.023315 546.694580,396.582458 
z"/>
<path fill="#333A79" opacity="1.000000" stroke="none" 
	d="
M484.489685,420.208221 
	C489.500153,419.911987 494.507660,419.535583 499.522186,419.345795 
	C503.288025,419.203247 507.062927,419.300446 511.277161,419.223297 
	C511.491394,420.704132 511.609467,422.412476 510.981079,423.777100 
	C501.374573,444.639069 491.670532,465.456146 481.834045,486.615784 
	C479.437897,474.940674 477.196930,462.933441 475.007660,450.104919 
	C478.202789,439.591827 481.346222,429.900024 484.489685,420.208221 
z"/>
<path fill="#CBD2DC" opacity="1.000000" stroke="none" 
	d="
M483.989166,420.148254 
	C481.346222,429.900024 478.202789,439.591827 475.011780,449.659546 
	C473.345337,443.536346 471.678070,437.048737 470.128143,430.533203 
	C469.360992,427.308228 468.809967,424.031891 468.159973,420.379395 
	C473.268768,420.016083 478.378693,420.052185 483.989166,420.148254 
z"/>
<path fill="#CCD3DD" opacity="1.000000" stroke="none" 
	d="
M454.043945,350.387268 
	C457.146515,347.429962 460.242035,344.877441 463.640137,342.174255 
	C465.149963,342.496735 466.357178,342.969879 467.790344,343.671997 
	C465.607452,352.972504 463.211823,362.047638 460.759003,371.107300 
	C460.601501,371.689026 460.002197,372.151154 459.272949,372.846069 
	C457.303925,365.612854 455.670380,358.202423 454.043945,350.387268 
z"/>
<path fill="#DD8A2E" opacity="1.000000" stroke="none" 
	d="
M398.235443,357.126038 
	C395.149841,357.203064 392.512024,357.147614 389.429810,357.028870 
	C389.990601,353.303253 390.995819,349.640991 392.002747,345.601379 
	C395.029846,345.126068 398.055237,345.028076 401.530823,344.978333 
	C402.961212,348.659149 403.941406,352.291718 404.990601,356.276489 
	C402.934174,356.750305 400.808716,356.871948 398.235443,357.126038 
z"/>
<path fill="#CCD3DD" opacity="1.000000" stroke="none" 
	d="
M397.015259,406.998901 
	C399.612488,417.589935 393.250977,423.614014 385.433472,428.786743 
	C385.811920,426.847015 386.526337,425.187408 387.233917,423.524963 
	C389.154266,419.012970 391.071777,414.499786 392.990417,409.987091 
	C392.990417,409.987091 392.999176,410.001221 393.317780,409.964508 
	C394.762665,408.951508 395.888947,407.975220 397.015259,406.998901 
z"/>
<path fill="#E0E5E9" opacity="1.000000" stroke="none" 
	d="
M392.682495,410.141724 
	C391.071777,414.499786 389.154266,419.012970 387.233917,423.524963 
	C386.526337,425.187408 385.811920,426.847015 385.104919,428.889343 
	C384.704926,429.675568 384.300659,430.080322 383.621765,430.434937 
	C384.359436,427.314728 385.107666,424.123169 386.450043,421.204926 
	C388.175446,417.453979 390.377716,413.922394 392.682495,410.141724 
z"/>
<path fill="#E0E5E9" opacity="1.000000" stroke="none" 
	d="
M397.098907,406.592163 
	C395.888947,407.975220 394.762665,408.951508 393.310242,409.959290 
	C394.186981,407.750519 395.389893,405.510223 396.884552,403.069946 
	C397.178406,403.975098 397.180481,405.080261 397.098907,406.592163 
z"/>
<path fill="#E0E5E9" opacity="1.000000" stroke="none" 
	d="
M382.356873,432.043884 
	C382.229462,431.588379 382.416626,430.966156 382.914856,430.211670 
	C383.041107,430.678619 382.856262,431.277893 382.356873,432.043884 
z"/>
<path fill="#D7AC84" opacity="1.000000" stroke="none" 
	d="
M493.108521,347.153748 
	C494.284576,344.996002 495.591492,343.155701 497.152893,341.057556 
	C503.939819,343.427032 510.472260,346.054321 517.004700,348.681610 
	C516.888123,349.326172 516.771484,349.970764 516.654907,350.615326 
	C515.197998,350.755707 513.741455,351.011383 512.284058,351.016968 
	C504.910126,351.045227 504.910034,351.022461 504.443085,358.853607 
	C500.271240,354.615204 496.755310,351.043213 493.108521,347.153748 
z"/>
<path fill="#EF9320" opacity="1.000000" stroke="none" 
	d="
M217.569855,315.172424 
	C215.926712,312.693115 214.606506,310.071564 213.233551,307.153992 
	C218.233490,303.502747 223.285934,300.147125 228.338974,296.792389 
	C230.920029,295.078827 233.502213,293.366974 236.083878,291.654358 
	C236.508286,291.958069 236.932678,292.261780 237.357071,292.565491 
	C235.521027,296.292480 233.684998,300.019470 231.747833,303.951721 
	C233.892899,304.777863 235.490875,305.393341 238.073090,306.387848 
	C230.749603,309.524200 224.321198,312.277222 217.569855,315.172424 
z"/>
<path fill="#9E7857" opacity="1.000000" stroke="none" 
	d="
M403.652161,315.016968 
	C402.829987,312.381714 402.395569,309.646301 401.950317,306.499573 
	C408.325928,303.867737 414.694305,301.592682 421.111053,299.463501 
	C422.800385,298.902954 424.639435,298.793640 426.873138,299.609650 
	C424.124969,302.488617 421.376770,305.367584 418.475250,308.407196 
	C420.259460,310.068787 421.534271,311.255951 423.733368,313.303894 
	C416.465118,313.899170 410.252502,314.407990 403.652161,315.016968 
z"/>
</svg>